<?xml version="1.0" encoding="UTF-8"?>
<!DOCTYPE svg PUBLIC "-//W3C//DTD SVG 1.1//EN" "http://www.w3.org/Graphics/SVG/1.1/DTD/svg11.dtd">
<svg xmlns="http://www.w3.org/2000/svg" version="1.1" width="500px" height="124px" style="shape-rendering:geometricPrecision; text-rendering:geometricPrecision; image-rendering:optimizeQuality; fill-rule:evenodd; clip-rule:evenodd" xmlns:xlink="http://www.w3.org/1999/xlink">
<g><path style="opacity:1" fill="#040813" d="M -0.5,-0.5 C 117.833,-0.5 236.167,-0.5 354.5,-0.5C 354.5,-0.166667 354.5,0.166667 354.5,0.5C 344.529,1.82108 335.862,5.82108 328.5,12.5C 323.145,15.8546 318.812,20.1879 315.5,25.5C 309.917,31.6535 305.584,38.6535 302.5,46.5C 301.27,48.2972 300.604,50.2972 300.5,52.5C 297.458,59.0598 295.791,66.0598 295.5,73.5C 295.183,77.7016 295.517,81.7016 296.5,85.5C 296.375,91.7832 298.042,97.4499 301.5,102.5C 304.52,107.513 308.853,110.847 314.5,112.5C 318.352,113.644 322.352,113.644 326.5,112.5C 329.912,111.925 332.912,110.592 335.5,108.5C 336.728,109.306 337.728,110.306 338.5,111.5C 342.091,115.299 346.091,118.633 350.5,121.5C 351.71,121.932 352.71,122.599 353.5,123.5C 235.5,123.5 117.5,123.5 -0.5,123.5C -0.5,114.167 -0.5,104.833 -0.5,95.5C 0.166667,96.1667 0.833333,96.8333 1.5,97.5C 2.89084,99.8903 4.89084,101.557 7.5,102.5C 8.56764,103.434 9.90097,103.768 11.5,103.5C 13.1269,92.6503 16.1269,82.3169 20.5,72.5C 21.5804,74.9962 22.9138,77.3295 24.5,79.5C 26.4449,83.7363 29.1116,87.4029 32.5,90.5C 32.8333,91.5 33.5,92.1667 34.5,92.5C 37.1667,97.1667 40.8333,100.833 45.5,103.5C 55.5531,113.193 67.5531,119.193 81.5,121.5C 83.2646,122.461 85.2646,122.795 87.5,122.5C 89.1238,122.64 90.2904,121.973 91,120.5C 91.3336,118.153 91.167,115.819 90.5,113.5C 88.9172,109.241 85.9172,106.908 81.5,106.5C 75.608,105.423 69.9413,103.756 64.5,101.5C 56.9658,96.896 49.9658,91.5627 43.5,85.5C 42.2195,82.5526 40.2195,80.2193 37.5,78.5C 35.5113,75.1944 33.5113,71.8611 31.5,68.5C 31.8333,67.8333 32.1667,67.1667 32.5,66.5C 36.1595,66.8412 39.4928,66.1745 42.5,64.5C 48.6347,63.1266 54.3014,60.7933 59.5,57.5C 62.1354,56.1891 64.4687,54.5224 66.5,52.5C 68.1667,51.5 69.5,50.1667 70.5,48.5C 74.0957,45.6431 76.429,41.9764 77.5,37.5C 78.973,34.9831 79.6397,32.1498 79.5,29C 79.4944,26.9674 79.1611,25.134 78.5,23.5C 76.6759,18.1779 73.0092,14.6779 67.5,13C 62.9342,11.6908 58.2675,11.1908 53.5,11.5C 55.4611,9.03652 57.6278,6.70319 60,4.5C 60.7401,3.25057 60.5735,2.25057 59.5,1.5C 58.0813,0.548855 56.4147,0.215521 54.5,0.5C 50.7806,0.00249007 47.4473,0.835823 44.5,3C 40.7838,7.0482 37.4504,11.3815 34.5,16C 28.5933,18.9026 22.9267,22.2359 17.5,26C 14.8823,28.1057 12.8823,30.6057 11.5,33.5C 10.8902,34.391 10.5569,35.391 10.5,36.5C 10.5,37.5 10.5,38.5 10.5,39.5C 10.8425,41.2252 11.8425,41.7252 13.5,41C 14.759,38.2728 16.759,36.4394 19.5,35.5C 21.0174,35.4894 22.1841,34.8228 23,33.5C 23.1667,33.8333 23.3333,34.1667 23.5,34.5C 21.809,37.8472 20.1423,41.1806 18.5,44.5C 16.4654,47.3995 14.7987,50.5662 13.5,54C 11.5273,54.4955 9.5273,54.6621 7.5,54.5C 5.13895,54.3259 2.80562,53.9926 0.5,53.5C 0.5,54.5 0.5,55.5 0.5,56.5C 0.519936,61.5107 2.85327,64.844 7.5,66.5C 5.43305,71.7013 3.76638,77.0346 2.5,82.5C 1.3485,84.7791 0.348502,87.1124 -0.5,89.5C -0.5,59.5 -0.5,29.5 -0.5,-0.5 Z"/></g>
<g><path style="opacity:1" fill="#040712" d="M 366.5,0.5 C 366.5,0.166667 366.5,-0.166667 366.5,-0.5C 410.833,-0.5 455.167,-0.5 499.5,-0.5C 499.5,14.5 499.5,29.5 499.5,44.5C 488.946,42.2275 478.28,41.8941 467.5,43.5C 465.435,43.5172 463.435,43.8505 461.5,44.5C 454.294,44.0425 450.627,47.3758 450.5,54.5C 450.62,55.5862 451.287,56.2528 452.5,56.5C 457.786,54.2947 463.119,52.2947 468.5,50.5C 472.326,49.0003 476.326,48.3336 480.5,48.5C 481.492,48.3284 482.158,48.6618 482.5,49.5C 480.632,50.2632 478.965,51.2632 477.5,52.5C 475.77,53.0256 474.436,54.0256 473.5,55.5C 467.562,59.106 462.229,63.4393 457.5,68.5C 452.482,73.0185 447.649,77.6852 443,82.5C 440.977,84.7693 440.144,87.4359 440.5,90.5C 441.959,90.5674 443.292,90.2341 444.5,89.5C 448.373,88.866 452.039,87.866 455.5,86.5C 463.416,84.982 471.416,84.3153 479.5,84.5C 480.833,84.1667 482.167,83.8333 483.5,83.5C 484.167,83.5 484.833,83.5 485.5,83.5C 484.737,84.2679 483.737,84.7679 482.5,85C 486.426,86.8257 490.426,87.3257 494.5,86.5C 493.975,85.8076 493.308,85.3076 492.5,85C 493.791,83.7083 493.791,82.5417 492.5,81.5C 491.71,80.2058 490.71,79.0391 489.5,78C 481.173,77.5003 472.84,77.3336 464.5,77.5C 462.194,77.9926 459.861,78.3259 457.5,78.5C 464.268,70.3931 471.935,63.3931 480.5,57.5C 484.806,55.0117 489.139,52.5117 493.5,50C 491.735,49.3603 490.068,49.5269 488.5,50.5C 487.77,48.955 486.437,48.1216 484.5,48C 489.591,47.9672 494.591,47.8005 499.5,47.5C 499.5,72.8333 499.5,98.1667 499.5,123.5C 452.167,123.5 404.833,123.5 357.5,123.5C 360.744,121.445 363.91,119.111 367,116.5C 368.128,114.655 368.628,112.655 368.5,110.5C 364.302,109.733 360.302,108.399 356.5,106.5C 356.5,105.833 356.167,105.5 355.5,105.5C 353.858,104.197 352.191,102.864 350.5,101.5C 350.047,100.542 349.381,99.7083 348.5,99C 349.71,97.9609 350.71,96.7942 351.5,95.5C 353.5,94.1667 355.167,92.5 356.5,90.5C 361.79,84.2547 365.79,77.2547 368.5,69.5C 370.074,67.8984 370.741,65.8984 370.5,63.5C 371.924,61.4855 372.59,59.1522 372.5,56.5C 373.477,53.7131 373.81,50.7131 373.5,47.5C 373.666,43.4862 373.499,39.4862 373,35.5C 372.768,34.2625 372.268,33.2625 371.5,32.5C 371.5,31.8333 371.167,31.5 370.5,31.5C 368.421,29.127 365.754,27.7936 362.5,27.5C 360.868,27.8247 359.868,28.8247 359.5,30.5C 360.156,32.4534 360.489,34.4534 360.5,36.5C 360.927,44.0525 359.927,51.3858 357.5,58.5C 357.5,59.1667 357.5,59.8333 357.5,60.5C 356.514,62.4261 355.514,64.4261 354.5,66.5C 351.205,74.7708 346.205,81.7708 339.5,87.5C 338.263,86.0351 337.263,84.3684 336.5,82.5C 336.573,80.9731 335.906,79.9731 334.5,79.5C 331.448,76.6297 327.948,75.963 324,77.5C 323.333,79.8333 323.333,82.1667 324,84.5C 324.911,88.2299 326.411,91.5632 328.5,94.5C 327.826,97.9067 325.659,99.24 322,98.5C 319.282,98.4363 317.115,97.4363 315.5,95.5C 314.545,93.2543 313.878,90.921 313.5,88.5C 313.335,84.8183 313.501,81.1516 314,77.5C 316.039,68.3417 318.539,59.3417 321.5,50.5C 325.468,44.8566 329.468,39.19 333.5,33.5C 338.243,29.4153 343.243,25.7486 348.5,22.5C 357.524,18.8323 366.858,17.499 376.5,18.5C 377.309,16.9291 377.643,15.2624 377.5,13.5C 377.514,9.52518 376.181,6.19185 373.5,3.5C 371.815,1.18237 369.481,0.182371 366.5,0.5 Z"/></g>
<g><path style="opacity:1" fill="#45b0d9" d="M 354.5,0.5 C 346.372,2.56416 339.038,6.23083 332.5,11.5C 331.167,11.8333 329.833,12.1667 328.5,12.5C 335.862,5.82108 344.529,1.82108 354.5,0.5 Z"/></g>
<g><path style="opacity:1" fill="#6892d8" d="M 354.5,-0.5 C 356.833,-0.5 359.167,-0.5 361.5,-0.5C 351.552,2.63479 341.886,6.63479 332.5,11.5C 339.038,6.23083 346.372,2.56416 354.5,0.5C 354.5,0.166667 354.5,-0.166667 354.5,-0.5 Z"/></g>
<g><path style="opacity:1" fill="#d82951" d="M 54.5,0.5 C 56.4147,0.215521 58.0813,0.548855 59.5,1.5C 58.7387,2.39092 57.7387,3.05758 56.5,3.5C 55.2322,2.57211 53.8989,2.40544 52.5,3C 49.6883,6.17606 47.0216,9.34273 44.5,12.5C 42.9561,13.914 41.2894,14.2474 39.5,13.5C 41.5803,11.0072 43.4136,8.34051 45,5.5C 48.3545,4.05208 51.5212,2.38541 54.5,0.5 Z"/></g>
<g><path style="opacity:1" fill="#815f95" d="M 361.5,-0.5 C 363.167,-0.5 364.833,-0.5 366.5,-0.5C 366.5,-0.166667 366.5,0.166667 366.5,0.5C 359.899,2.65502 353.232,4.82169 346.5,7C 342.44,8.68914 338.773,10.8558 335.5,13.5C 330.829,16.1687 326.162,18.8354 321.5,21.5C 319.246,22.4151 317.246,23.7484 315.5,25.5C 318.812,20.1879 323.145,15.8546 328.5,12.5C 329.833,12.1667 331.167,11.8333 332.5,11.5C 341.886,6.63479 351.552,2.63479 361.5,-0.5 Z"/></g>
<g><path style="opacity:1" fill="#a2304a" d="M 366.5,0.5 C 369.481,0.182371 371.815,1.18237 373.5,3.5C 366.395,4.69292 359.395,6.35959 352.5,8.5C 346.113,9.07367 340.446,11.407 335.5,15.5C 334.537,15.0302 334.537,14.3635 335.5,13.5C 338.773,10.8558 342.44,8.68914 346.5,7C 353.232,4.82169 359.899,2.65502 366.5,0.5 Z"/></g>
<g><path style="opacity:1" fill="#a80e5f" d="M 373.5,3.5 C 376.181,6.19185 377.514,9.52518 377.5,13.5C 375.596,13.2624 374.262,12.2624 373.5,10.5C 374.506,10.0623 374.506,9.39567 373.5,8.5C 374.239,8.63101 374.906,8.46434 375.5,8C 367.818,6.27717 360.152,6.44383 352.5,8.5C 359.395,6.35959 366.395,4.69292 373.5,3.5 Z"/></g>
<g><path style="opacity:1" fill="#ec8919" d="M 59.5,1.5 C 60.5735,2.25057 60.7401,3.25057 60,4.5C 57.6278,6.70319 55.4611,9.03652 53.5,11.5C 50.5176,11.9629 47.5176,12.2962 44.5,12.5C 47.0216,9.34273 49.6883,6.17606 52.5,3C 53.8989,2.40544 55.2322,2.57211 56.5,3.5C 57.7387,3.05758 58.7387,2.39092 59.5,1.5 Z"/></g>
<g><path style="opacity:1" fill="#e41a7f" d="M 373.5,8.5 C 374.506,9.39567 374.506,10.0623 373.5,10.5C 364.592,9.92161 355.926,11.0883 347.5,14C 345.934,14.6082 344.6,15.4415 343.5,16.5C 341.204,16.1959 340.871,15.1959 342.5,13.5C 352.432,9.43484 362.765,7.76817 373.5,8.5 Z"/></g>
<g><path style="opacity:1" fill="#4e296c" d="M 53.5,11.5 C 58.2675,11.1908 62.9342,11.6908 67.5,13C 73.0092,14.6779 76.6759,18.1779 78.5,23.5C 70.6862,16.3394 61.3528,12.8394 50.5,13C 51.7375,12.7679 52.7375,12.2679 53.5,11.5 Z"/></g>
<g><path style="opacity:1" fill="#9e3089" d="M 373.5,8.5 C 362.765,7.76817 352.432,9.43484 342.5,13.5C 345.565,11.3009 348.898,9.63426 352.5,8.5C 360.152,6.44383 367.818,6.27717 375.5,8C 374.906,8.46434 374.239,8.63101 373.5,8.5 Z"/></g>
<g><path style="opacity:1" fill="#af2782" d="M 342.5,13.5 C 340.871,15.1959 341.204,16.1959 343.5,16.5C 343.5,16.8333 343.5,17.1667 343.5,17.5C 339.151,19.0078 335.151,21.0078 331.5,23.5C 329.716,23.8925 328.05,24.5592 326.5,25.5C 327.927,22.2364 330.261,19.7364 333.5,18C 336.411,16.2389 339.411,14.7389 342.5,13.5 Z"/></g>
<g><path style="opacity:1" fill="#c00a52" d="M 373.5,10.5 C 374.262,12.2624 375.596,13.2624 377.5,13.5C 377.643,15.2624 377.309,16.9291 376.5,18.5C 366.858,17.499 357.524,18.8323 348.5,22.5C 347.761,22.631 347.094,22.4643 346.5,22C 352.425,16.6859 351.425,15.1859 343.5,17.5C 343.5,17.1667 343.5,16.8333 343.5,16.5C 344.6,15.4415 345.934,14.6082 347.5,14C 355.926,11.0883 364.592,9.92161 373.5,10.5 Z"/></g>
<g><path style="opacity:1" fill="#90214c" d="M 54.5,0.5 C 51.5212,2.38541 48.3545,4.05208 45,5.5C 43.4136,8.34051 41.5803,11.0072 39.5,13.5C 41.2894,14.2474 42.9561,13.914 44.5,12.5C 47.5176,12.2962 50.5176,11.9629 53.5,11.5C 52.7375,12.2679 51.7375,12.7679 50.5,13C 61.3528,12.8394 70.6862,16.3394 78.5,23.5C 79.1611,25.134 79.4944,26.9674 79.5,29C 79.6397,32.1498 78.973,34.9831 77.5,37.5C 77.1686,33.4685 76.8353,29.3019 76.5,25C 75.4939,23.662 74.4939,22.3287 73.5,21C 72.2506,20.2599 71.2506,20.4265 70.5,21.5C 68.3621,18.9373 66.6955,19.2706 65.5,22.5C 57.3542,19.9475 49.3542,19.9475 41.5,22.5C 37.8242,22.5826 34.4908,23.5826 31.5,25.5C 30.8333,25.5 30.1667,25.5 29.5,25.5C 30.0668,23.9705 30.7334,22.4705 31.5,21C 30.1667,20.3333 28.8333,20.3333 27.5,21C 23.4031,23.3696 19.7365,26.2029 16.5,29.5C 14.8333,30.8333 13.1667,32.1667 11.5,33.5C 12.8823,30.6057 14.8823,28.1057 17.5,26C 22.9267,22.2359 28.5933,18.9026 34.5,16C 37.4504,11.3815 40.7838,7.0482 44.5,3C 47.4473,0.835823 50.7806,0.00249007 54.5,0.5 Z"/></g>
<g><path style="opacity:1" fill="#d5443e" d="M 43.5,14.5 C 48.032,14.0692 52.3654,14.5692 56.5,16C 49.3501,18.7223 42.0168,20.3889 34.5,21C 36.8581,17.8321 39.8581,15.6655 43.5,14.5 Z"/></g>
<g><path style="opacity:1" fill="#060913" d="M 65.5,22.5 C 68.0762,24.8875 69.0762,27.8875 68.5,31.5C 66.2437,35.0974 63.5771,38.4307 60.5,41.5C 56.7375,43.4127 53.0709,45.5794 49.5,48C 44.6944,49.7628 40.0277,51.5961 35.5,53.5C 35.1667,53.5 34.8333,53.5 34.5,53.5C 32.7085,53.366 31.0418,53.6993 29.5,54.5C 28.7611,54.631 28.0944,54.4643 27.5,54C 29.2024,51.7646 30.2024,49.2646 30.5,46.5C 34.8051,39.2346 39.1384,31.9013 43.5,24.5C 44.0431,24.44 44.3764,24.1067 44.5,23.5C 43.675,22.6143 42.675,22.281 41.5,22.5C 49.3542,19.9475 57.3542,19.9475 65.5,22.5 Z"/></g>
<g><path style="opacity:1" fill="#3a435b" d="M 29.5,25.5 C 22.6226,29.3701 16.2893,34.0368 10.5,39.5C 10.5,38.5 10.5,37.5 10.5,36.5C 14.7744,33.3519 19.1077,30.1852 23.5,27C 21.0111,27.2373 18.6778,28.0707 16.5,29.5C 19.7365,26.2029 23.4031,23.3696 27.5,21C 28.8333,20.3333 30.1667,20.3333 31.5,21C 30.7334,22.4705 30.0668,23.9705 29.5,25.5 Z"/></g>
<g><path style="opacity:1" fill="#791825" d="M 70.5,21.5 C 71.7899,22.0577 72.6232,23.0577 73,24.5C 73.498,27.4816 73.6646,30.4816 73.5,33.5C 72.0048,33.9887 70.6715,34.6554 69.5,35.5C 68.5655,34.4324 68.2322,33.099 68.5,31.5C 69.0762,27.8875 68.0762,24.8875 65.5,22.5C 66.6955,19.2706 68.3621,18.9373 70.5,21.5 Z"/></g>
<g><path style="opacity:1" fill="#bb5a37" d="M 270.5,29.5 C 270.649,28.448 270.483,27.448 270,26.5C 268.918,28.6181 267.751,30.6181 266.5,32.5C 266.362,30.104 266.029,27.7707 265.5,25.5C 265.611,24.8826 265.944,24.3826 266.5,24C 268.473,23.5045 270.473,23.3379 272.5,23.5C 272.741,25.8984 272.074,27.8984 270.5,29.5 Z"/></g>
<g><path style="opacity:1" fill="#8a0953" d="M 348.5,22.5 C 343.243,25.7486 338.243,29.4153 333.5,33.5C 331.629,33.8588 330.129,34.8588 329,36.5C 328.986,34.5292 329.319,32.5292 330,30.5C 333.736,25.2624 338.236,20.929 343.5,17.5C 351.425,15.1859 352.425,16.6859 346.5,22C 347.094,22.4643 347.761,22.631 348.5,22.5 Z"/></g>
<g><path style="opacity:1" fill="#592464" d="M 29.5,25.5 C 30.1667,25.5 30.8333,25.5 31.5,25.5C 29.1667,27.5 26.8333,29.5 24.5,31.5C 22.2512,32.0798 20.5846,33.4131 19.5,35.5C 16.759,36.4394 14.759,38.2728 13.5,41C 11.8425,41.7252 10.8425,41.2252 10.5,39.5C 16.2893,34.0368 22.6226,29.3701 29.5,25.5 Z"/></g>
<g><path style="opacity:1" fill="#512f30" d="M 41.5,22.5 C 42.675,22.281 43.675,22.6143 44.5,23.5C 44.3764,24.1067 44.0431,24.44 43.5,24.5C 42.2946,23.3143 40.9613,23.3143 39.5,24.5C 38.5084,24.3284 37.8417,24.6618 37.5,25.5C 35.0462,26.2271 32.7128,27.2271 30.5,28.5C 28.7837,30.0248 26.7837,31.0248 24.5,31.5C 26.8333,29.5 29.1667,27.5 31.5,25.5C 34.4908,23.5826 37.8242,22.5826 41.5,22.5 Z"/></g>
<g><path style="opacity:1" fill="#951856" d="M 352.5,8.5 C 348.898,9.63426 345.565,11.3009 342.5,13.5C 339.411,14.7389 336.411,16.2389 333.5,18C 330.261,19.7364 327.927,22.2364 326.5,25.5C 321.529,30.1092 317.529,35.4425 314.5,41.5C 313.883,41.6107 313.383,41.944 313,42.5C 312.667,40.8333 312.333,39.1667 312,37.5C 310.667,39.5 309.333,41.5 308,43.5C 307.333,42.5 307.333,41.5 308,40.5C 311.554,33.4536 316.054,27.1202 321.5,21.5C 326.162,18.8354 330.829,16.1687 335.5,13.5C 334.537,14.3635 334.537,15.0302 335.5,15.5C 340.446,11.407 346.113,9.07367 352.5,8.5 Z"/></g>
<g><path style="opacity:1" fill="#f18c14" d="M 157.5,26.5 C 157.657,27.8734 157.49,29.2068 157,30.5C 155.315,32.0175 153.815,33.6841 152.5,35.5C 152.624,36.1067 152.957,36.44 153.5,36.5C 153.167,37.5 152.5,38.1667 151.5,38.5C 150.222,38.7822 149.222,39.4489 148.5,40.5C 147.928,38.8812 147.595,37.2145 147.5,35.5C 146.081,36.0047 145.415,37.0047 145.5,38.5C 144.662,38.1583 144.328,37.4916 144.5,36.5C 146.593,30.0552 150.927,26.7219 157.5,26.5 Z"/></g>
<g><path style="opacity:1" fill="#e0342f" d="M 233.5,26.5 C 229.78,27.2422 226.114,28.4089 222.5,30C 220.416,30.6972 218.749,31.8639 217.5,33.5C 217.167,33.5 216.833,33.5 216.5,33.5C 215.833,33.5 215.5,33.1667 215.5,32.5C 220.58,27.9176 226.58,25.9176 233.5,26.5 Z"/></g>
<g><path style="opacity:1" fill="#b90d4d" d="M 233.5,26.5 C 236.947,27.4389 238.28,29.4389 237.5,32.5C 228.733,30.3638 221.233,32.6972 215,39.5C 214.333,40.1667 214.333,40.8333 215,41.5C 216.011,40.6634 217.178,40.33 218.5,40.5C 218.5,41.1667 218.833,41.5 219.5,41.5C 215.139,46.2299 211.805,51.5632 209.5,57.5C 207.552,54.2437 206.886,50.9104 207.5,47.5C 210.197,42.2941 213.863,37.7941 218.5,34C 218.272,33.6012 217.938,33.4346 217.5,33.5C 218.749,31.8639 220.416,30.6972 222.5,30C 226.114,28.4089 229.78,27.2422 233.5,26.5 Z"/></g>
<g><path style="opacity:1" fill="#dd712c" d="M 288.5,30.5 C 285.368,32.2031 283.701,34.8698 283.5,38.5C 282.596,39.209 282.263,40.209 282.5,41.5C 281.833,41.5 281.167,41.5 280.5,41.5C 281.028,40.1526 281.195,38.8193 281,37.5C 279.237,38.9437 277.237,39.9437 275,40.5C 275.109,39.2312 274.942,38.2312 274.5,37.5C 276.763,33.8971 279.43,30.5638 282.5,27.5C 284.432,26.4798 286.432,26.3131 288.5,27C 289.791,28.2917 289.791,29.4583 288.5,30.5 Z"/></g>
<g><path style="opacity:1" fill="#4a396d" d="M 10.5,36.5 C 10.5569,35.391 10.8902,34.391 11.5,33.5C 13.1667,32.1667 14.8333,30.8333 16.5,29.5C 18.6778,28.0707 21.0111,27.2373 23.5,27C 19.1077,30.1852 14.7744,33.3519 10.5,36.5 Z"/></g>
<g><path style="opacity:1" fill="#c21c56" d="M 362.5,27.5 C 365.754,27.7936 368.421,29.127 370.5,31.5C 370.631,32.2389 370.464,32.9056 370,33.5C 368.349,30.7793 366.682,30.4459 365,32.5C 363.117,31.3474 362.284,29.6807 362.5,27.5 Z"/></g>
<g><path style="opacity:1" fill="#9e7796" d="M 114.5,28.5 C 116.244,32.0343 115.244,34.7009 111.5,36.5C 111.833,35.1667 112.167,33.8333 112.5,32.5C 113.345,31.3285 114.011,29.9952 114.5,28.5 Z"/></g>
<g><path style="opacity:1" fill="#4fb3e0" d="M 183.5,31.5 C 181.364,32.7189 179.031,33.5522 176.5,34C 177.448,34.4828 178.448,34.6495 179.5,34.5C 177.167,35.8333 174.833,35.8333 172.5,34.5C 174.928,30.9017 178.094,28.235 182,26.5C 183.167,26.8333 184.333,27.1667 185.5,27.5C 184.82,28.8599 184.153,30.1932 183.5,31.5 Z"/></g>
<g><path style="opacity:1" fill="#751755" d="M 237.5,32.5 C 237.833,33.1667 238.167,33.8333 238.5,34.5C 230.555,32.4845 223.889,34.4845 218.5,40.5C 217.178,40.33 216.011,40.6634 215,41.5C 214.333,40.8333 214.333,40.1667 215,39.5C 221.233,32.6972 228.733,30.3638 237.5,32.5 Z"/></g>
<g><path style="opacity:1" fill="#81204d" d="M 405.5,30.5 C 400.527,29.4792 396.36,31.1458 393,35.5C 392.667,34.8333 392.333,34.1667 392,33.5C 389.56,36.7278 387.394,40.0611 385.5,43.5C 385.5,42.8333 385.167,42.5 384.5,42.5C 387.17,36.6571 390.837,31.4904 395.5,27C 398.833,26.3333 402.167,26.3333 405.5,27C 408.018,28.1396 408.018,29.3063 405.5,30.5 Z"/></g>
<g><path style="opacity:1" fill="#840f3f" d="M 30.5,28.5 C 26.7158,33.7343 23.7158,39.401 21.5,45.5C 20.5416,45.9528 19.7083,46.6195 19,47.5C 18.5172,46.552 18.3505,45.552 18.5,44.5C 20.1423,41.1806 21.809,37.8472 23.5,34.5C 23.3333,34.1667 23.1667,33.8333 23,33.5C 22.1841,34.8228 21.0174,35.4894 19.5,35.5C 20.5846,33.4131 22.2512,32.0798 24.5,31.5C 26.7837,31.0248 28.7837,30.0248 30.5,28.5 Z"/></g>
<g><path style="opacity:1" fill="#573d6d" d="M 183.5,31.5 C 185.888,32.3485 188.221,33.3485 190.5,34.5C 190.5,34.8333 190.5,35.1667 190.5,35.5C 188.958,34.6993 187.292,34.366 185.5,34.5C 183.5,34.5 181.5,34.5 179.5,34.5C 178.448,34.6495 177.448,34.4828 176.5,34C 179.031,33.5522 181.364,32.7189 183.5,31.5 Z"/></g>
<g><path style="opacity:1" fill="#484896" d="M 124.5,30.5 C 124.46,35.1925 124.127,39.8592 123.5,44.5C 123.167,44.5 122.833,44.5 122.5,44.5C 122.5,40.1667 122.5,35.8333 122.5,31.5C 122.842,30.6618 123.508,30.3284 124.5,30.5 Z"/></g>
<g><path style="opacity:1" fill="#d65a28" d="M 157.5,26.5 C 158.995,26.4148 159.995,27.0815 160.5,28.5C 158.115,31.2117 155.782,33.8784 153.5,36.5C 152.957,36.44 152.624,36.1067 152.5,35.5C 153.815,33.6841 155.315,32.0175 157,30.5C 157.49,29.2068 157.657,27.8734 157.5,26.5 Z"/></g>
<g><path style="opacity:1" fill="#ed381b" d="M 111.5,26.5 C 112.492,26.3284 113.158,26.6618 113.5,27.5C 110.5,31.5 107.5,35.5 104.5,39.5C 103.535,38.2789 103.702,36.9456 105,35.5C 107.385,32.6215 109.552,29.6215 111.5,26.5 Z"/></g>
<g><path style="opacity:1" fill="#ef8542" d="M 113.5,27.5 C 114.167,27.5 114.5,27.8333 114.5,28.5C 114.011,29.9952 113.345,31.3285 112.5,32.5C 109.444,34.9485 107.111,37.9485 105.5,41.5C 103.323,42.5042 102.989,41.8375 104.5,39.5C 107.5,35.5 110.5,31.5 113.5,27.5 Z"/></g>
<g><path style="opacity:1" fill="#f24042" d="M 112.5,32.5 C 112.167,33.8333 111.833,35.1667 111.5,36.5C 109.544,38.1139 107.544,39.7806 105.5,41.5C 107.111,37.9485 109.444,34.9485 112.5,32.5 Z"/></g>
<g><path style="opacity:1" fill="#68479c" d="M 331.5,23.5 C 325.778,29.5526 320.111,35.5526 314.5,41.5C 317.529,35.4425 321.529,30.1092 326.5,25.5C 328.05,24.5592 329.716,23.8925 331.5,23.5 Z"/></g>
<g><path style="opacity:1" fill="#822562" d="M 362.5,27.5 C 362.284,29.6807 363.117,31.3474 365,32.5C 366.682,30.4459 368.349,30.7793 370,33.5C 370.464,32.9056 370.631,32.2389 370.5,31.5C 371.167,31.5 371.5,31.8333 371.5,32.5C 371.662,34.5273 371.495,36.5273 371,38.5C 369.442,37.6548 368.442,38.3215 368,40.5C 367.667,39.1667 367.333,37.8333 367,36.5C 365.269,40.3351 363.935,40.0018 363,35.5C 362.329,36.2524 361.496,36.5858 360.5,36.5C 360.489,34.4534 360.156,32.4534 359.5,30.5C 359.868,28.8247 360.868,27.8247 362.5,27.5 Z"/></g>
<g><path style="opacity:1" fill="#492d64" d="M 405.5,30.5 C 405.5,30.8333 405.5,31.1667 405.5,31.5C 403.983,31.5106 402.816,32.1772 402,33.5C 399.155,37.2054 396.322,40.8721 393.5,44.5C 391.985,42.4527 391.151,40.1193 391,37.5C 388.962,40.2432 387.462,43.2432 386.5,46.5C 385.833,46.5 385.5,46.8333 385.5,47.5C 384.646,46.3684 384.646,45.035 385.5,43.5C 387.394,40.0611 389.56,36.7278 392,33.5C 392.333,34.1667 392.667,34.8333 393,35.5C 396.36,31.1458 400.527,29.4792 405.5,30.5 Z"/></g>
<g><path style="opacity:1" fill="#a1413b" d="M 419.5,34.5 C 421.5,34.5 423.5,34.5 425.5,34.5C 425.784,36.4147 425.451,38.0813 424.5,39.5C 424.631,38.7611 424.464,38.0944 424,37.5C 423.392,39.0664 422.558,40.3998 421.5,41.5C 420.778,41.9175 420.278,42.5842 420,43.5C 419.667,43.1667 419.333,42.8333 419,42.5C 417.924,45.2373 416.757,47.904 415.5,50.5C 415.167,50.5 414.833,50.5 414.5,50.5C 416.174,45.1569 417.84,39.8236 419.5,34.5 Z"/></g>
<g><path style="opacity:1" fill="#4f3a1c" d="M 453.5,36.5 C 449.298,36.1832 445.298,36.5166 441.5,37.5C 440.167,37.5 438.833,37.5 437.5,37.5C 440.356,35.9942 443.523,35.3275 447,35.5C 449.361,35.5039 451.527,35.8373 453.5,36.5 Z"/></g>
<g><path style="opacity:1" fill="#b35f2d" d="M 190.5,35.5 C 190.5,35.1667 190.5,34.8333 190.5,34.5C 196.388,36.2564 199.388,40.2564 199.5,46.5C 198.833,46.5 198.167,46.5 197.5,46.5C 197.768,44.901 197.434,43.5676 196.5,42.5C 196.727,40.0672 195.727,38.4006 193.5,37.5C 192.71,36.5987 191.71,35.9321 190.5,35.5 Z"/></g>
<g><path style="opacity:1" fill="#b42b28" d="M 238.5,34.5 C 238.53,35.4972 238.03,36.1639 237,36.5C 230.231,34.7964 224.398,36.4631 219.5,41.5C 218.833,41.5 218.5,41.1667 218.5,40.5C 223.889,34.4845 230.555,32.4845 238.5,34.5 Z"/></g>
<g><path style="opacity:1" fill="#47c0de" d="M 262.5,28.5 C 263.043,28.56 263.376,28.8933 263.5,29.5C 262.476,30.8518 261.476,32.1851 260.5,33.5C 259.462,35.6277 258.129,36.6277 256.5,36.5C 258.115,33.5505 260.115,30.8838 262.5,28.5 Z"/></g>
<g><path style="opacity:1" fill="#94175e" d="M 288.5,30.5 C 287.784,33.5982 286.784,36.5982 285.5,39.5C 284.508,39.6716 283.842,39.3382 283.5,38.5C 283.701,34.8698 285.368,32.2031 288.5,30.5 Z"/></g>
<g><path style="opacity:1" fill="#f0b91a" d="M 441.5,37.5 C 445.298,36.5166 449.298,36.1832 453.5,36.5C 454.873,36.3433 456.207,36.51 457.5,37C 458.774,37.9772 458.774,38.8106 457.5,39.5C 454.272,38.4544 450.939,37.7878 447.5,37.5C 445.5,37.5 443.5,37.5 441.5,37.5 Z"/></g>
<g><path style="opacity:1" fill="#a81e35" d="M 43.5,24.5 C 39.1384,31.9013 34.8051,39.2346 30.5,46.5C 30.5,44.8333 30.5,43.1667 30.5,41.5C 33.2453,35.675 36.2453,30.0084 39.5,24.5C 40.9613,23.3143 42.2946,23.3143 43.5,24.5 Z"/></g>
<g><path style="opacity:1" fill="#6077b7" d="M 265.5,25.5 C 266.029,27.7707 266.362,30.104 266.5,32.5C 264.031,33.6067 263.031,35.6067 263.5,38.5C 262.662,38.8417 262.328,39.5084 262.5,40.5C 259.845,37.9832 259.845,36.3166 262.5,35.5C 262.145,34.4777 261.478,33.811 260.5,33.5C 261.476,32.1851 262.476,30.8518 263.5,29.5C 263.376,28.8933 263.043,28.56 262.5,28.5C 263.167,27.1667 264.167,26.1667 265.5,25.5 Z"/></g>
<g><path style="opacity:1" fill="#7e314d" d="M 270.5,29.5 C 269.737,33.1368 268.403,36.4701 266.5,39.5C 266.649,38.448 266.483,37.448 266,36.5C 265.583,37.756 264.75,38.4226 263.5,38.5C 263.031,35.6067 264.031,33.6067 266.5,32.5C 267.751,30.6181 268.918,28.6181 270,26.5C 270.483,27.448 270.649,28.448 270.5,29.5 Z"/></g>
<g><path style="opacity:1" fill="#a6717c" d="M 193.5,37.5 C 195.727,38.4006 196.727,40.0672 196.5,42.5C 196.5,43.8333 196.5,45.1667 196.5,46.5C 195.265,43.6702 194.265,40.6702 193.5,37.5 Z"/></g>
<g><path style="opacity:1" fill="#d9354d" d="M 436.5,38.5 C 436.5,37.8333 436.833,37.5 437.5,37.5C 438.833,37.5 440.167,37.5 441.5,37.5C 443.5,37.5 445.5,37.5 447.5,37.5C 447.833,38.1667 448.167,38.8333 448.5,39.5C 447.833,39.5 447.167,39.5 446.5,39.5C 443.098,39.6576 439.764,39.3242 436.5,38.5 Z"/></g>
<g><path style="opacity:1" fill="#e96517" d="M 447.5,37.5 C 450.939,37.7878 454.272,38.4544 457.5,39.5C 457.672,40.4916 457.338,41.1583 456.5,41.5C 456.389,40.8826 456.056,40.3826 455.5,40C 453.19,39.5034 450.857,39.3367 448.5,39.5C 448.167,38.8333 447.833,38.1667 447.5,37.5 Z"/></g>
<g><path style="opacity:1" fill="#c32847" d="M 70.5,21.5 C 71.2506,20.4265 72.2506,20.2599 73.5,21C 74.4939,22.3287 75.4939,23.662 76.5,25C 76.8353,29.3019 77.1686,33.4685 77.5,37.5C 76.429,41.9764 74.0957,45.6431 70.5,48.5C 69.2408,45.3146 70.0741,42.6479 73,40.5C 73.2362,38.236 73.7362,36.0693 74.5,34C 74.2716,33.6012 73.9382,33.4346 73.5,33.5C 73.6646,30.4816 73.498,27.4816 73,24.5C 72.6232,23.0577 71.7899,22.0577 70.5,21.5 Z"/></g>
<g><path style="opacity:1" fill="#38adbe" d="M 127.5,30.5 C 128.352,35.6641 128.352,40.9975 127.5,46.5C 127.167,46.5 126.833,46.5 126.5,46.5C 126.569,41.1463 126.902,35.813 127.5,30.5 Z"/></g>
<g><path style="opacity:1" fill="#8b6a46" d="M 144.5,36.5 C 144.328,37.4916 144.662,38.1583 145.5,38.5C 146.349,40.5101 145.682,42.1767 143.5,43.5C 142.542,43.9528 141.708,44.6195 141,45.5C 140.536,44.9056 140.369,44.2389 140.5,43.5C 141.079,40.6689 142.412,38.3356 144.5,36.5 Z"/></g>
<g><path style="opacity:1" fill="#5c9daf" d="M 39.5,24.5 C 36.2453,30.0084 33.2453,35.675 30.5,41.5C 27.6589,45.8489 25.3255,50.5156 23.5,55.5C 23.1667,55.5 22.8333,55.5 22.5,55.5C 24.8846,49.0622 27.5513,42.7288 30.5,36.5C 33.0692,33.039 35.4026,29.3723 37.5,25.5C 37.8417,24.6618 38.5084,24.3284 39.5,24.5 Z"/></g>
<g><path style="opacity:1" fill="#932e4a" d="M 98.5,36.5 C 97.7101,37.7942 96.7101,38.9609 95.5,40C 96.7839,40.6838 97.9505,40.5171 99,39.5C 99.6917,40.4368 99.525,41.1034 98.5,41.5C 96.8132,43.1662 94.8132,44.4995 92.5,45.5C 87.1346,48.4984 86.468,47.8317 90.5,43.5C 92.5691,40.4275 95.2358,38.0941 98.5,36.5 Z"/></g>
<g><path style="opacity:1" fill="#ce5835" d="M 148.5,40.5 C 148.167,41.1667 147.833,41.8333 147.5,42.5C 146.396,44.3885 145.063,46.0552 143.5,47.5C 143.167,47.5 142.833,47.5 142.5,47.5C 142.833,46.1667 143.167,44.8333 143.5,43.5C 145.682,42.1767 146.349,40.5101 145.5,38.5C 145.415,37.0047 146.081,36.0047 147.5,35.5C 147.595,37.2145 147.928,38.8812 148.5,40.5 Z"/></g>
<g><path style="opacity:1" fill="#7e2d52" d="M 274.5,37.5 C 274.942,38.2312 275.109,39.2312 275,40.5C 277.237,39.9437 279.237,38.9437 281,37.5C 281.195,38.8193 281.028,40.1526 280.5,41.5C 279.226,43.9925 278.56,46.6592 278.5,49.5C 277.833,50.5 277.167,51.5 276.5,52.5C 277.283,48.8542 277.45,45.1875 277,41.5C 276.617,42.056 276.117,42.3893 275.5,42.5C 273.376,43.0312 271.876,44.3645 271,46.5C 271.109,45.2312 270.942,44.2312 270.5,43.5C 271.475,41.2048 272.808,39.2048 274.5,37.5 Z"/></g>
<g><path style="opacity:1" fill="#463885" d="M 436.5,38.5 C 439.764,39.3242 443.098,39.6576 446.5,39.5C 443.541,40.8335 440.541,42.1668 437.5,43.5C 434.995,42.5033 432.328,42.5033 429.5,43.5C 429.5,41.8333 429.5,40.1667 429.5,38.5C 431.833,38.5 434.167,38.5 436.5,38.5 Z"/></g>
<g><path style="opacity:1" fill="#e7a71a" d="M 448.5,39.5 C 450.857,39.3367 453.19,39.5034 455.5,40C 456.056,40.3826 456.389,40.8826 456.5,41.5C 453.976,41.957 451.309,41.957 448.5,41.5C 448.5,40.8333 448.5,40.1667 448.5,39.5 Z"/></g>
<g><path style="opacity:1" fill="#a31453" d="M 73.5,33.5 C 73.9382,33.4346 74.2716,33.6012 74.5,34C 73.7362,36.0693 73.2362,38.236 73,40.5C 70.0741,42.6479 69.2408,45.3146 70.5,48.5C 69.5,50.1667 68.1667,51.5 66.5,52.5C 65.8501,52.1961 65.1835,51.8627 64.5,51.5C 63.3777,52.6302 62.0443,53.2969 60.5,53.5C 54.9474,56.1096 49.2808,58.4429 43.5,60.5C 42.2617,60.19 42.2617,59.69 43.5,59C 45.743,57.8638 48.0763,57.0305 50.5,56.5C 58.968,52.5378 66.1347,46.8711 72,39.5C 72.6667,38.5 72.6667,37.5 72,36.5C 69.9545,39.4233 67.7879,42.2567 65.5,45C 63.788,46.7509 61.788,47.4175 59.5,47C 62.6693,42.9992 66.0027,39.1659 69.5,35.5C 70.6715,34.6554 72.0048,33.9887 73.5,33.5 Z"/></g>
<g><path style="opacity:1" fill="#a6924b" d="M 151.5,38.5 C 150.89,40.4341 149.89,42.1007 148.5,43.5C 148.5,42.8333 148.167,42.5 147.5,42.5C 147.833,41.8333 148.167,41.1667 148.5,40.5C 149.222,39.4489 150.222,38.7822 151.5,38.5 Z"/></g>
<g><path style="opacity:1" fill="#7a1b53" d="M 216.5,33.5 C 216.833,33.5 217.167,33.5 217.5,33.5C 217.938,33.4346 218.272,33.6012 218.5,34C 213.863,37.7941 210.197,42.2941 207.5,47.5C 207.167,48.1667 206.833,48.8333 206.5,49.5C 205.637,50.463 204.97,50.463 204.5,49.5C 207.37,43.2994 211.37,37.9661 216.5,33.5 Z"/></g>
<g><path style="opacity:1" fill="#2aeaed" d="M 172.5,34.5 C 174.833,35.8333 177.167,35.8333 179.5,34.5C 181.5,34.5 183.5,34.5 185.5,34.5C 182.372,35.6319 179.038,36.4652 175.5,37C 179.833,37.3333 184.167,37.6667 188.5,38C 184.975,38.1787 181.641,38.6787 178.5,39.5C 177.508,39.3284 176.842,39.6618 176.5,40.5C 173.505,40.2938 170.838,40.9605 168.5,42.5C 167.833,42.5 167.5,42.8333 167.5,43.5C 163.259,44.9539 159.259,46.9539 155.5,49.5C 155.103,48.475 154.437,48.3083 153.5,49C 150.071,51.6916 148.071,55.1916 147.5,59.5C 146.007,58.6879 145.34,57.3545 145.5,55.5C 147.772,48.0544 152.439,42.5544 159.5,39C 163.653,36.9208 167.986,35.4208 172.5,34.5 Z"/></g>
<g><path style="opacity:1" fill="#605c9c" d="M 37.5,25.5 C 35.4026,29.3723 33.0692,33.039 30.5,36.5C 30.5654,36.0618 30.3988,35.7284 30,35.5C 26.0194,41.794 22.8527,48.4607 20.5,55.5C 19.5,55.5 18.5,55.5 17.5,55.5C 18.8333,52.1667 20.1667,48.8333 21.5,45.5C 23.7158,39.401 26.7158,33.7343 30.5,28.5C 32.7128,27.2271 35.0462,26.2271 37.5,25.5 Z"/></g>
<g><path style="opacity:1" fill="#f06630" d="M 120.5,32.5 C 121.833,38.1667 121.833,43.8333 120.5,49.5C 120.5,49.1667 120.5,48.8333 120.5,48.5C 120.631,47.7611 120.464,47.0944 120,46.5C 119.08,46.0698 118.247,45.7365 117.5,45.5C 119.391,42.058 120.391,38.3913 120.5,34.5C 120.5,33.8333 120.5,33.1667 120.5,32.5 Z"/></g>
<g><path style="opacity:1" fill="#c87925" d="M 499.5,44.5 C 499.5,44.8333 499.5,45.1667 499.5,45.5C 495.548,44.7279 491.548,44.3946 487.5,44.5C 480.646,44.824 473.979,44.4907 467.5,43.5C 478.28,41.8941 488.946,42.2275 499.5,44.5 Z"/></g>
<g><path style="opacity:1" fill="#417e96" d="M 176.5,40.5 C 174.33,42.3333 172.33,44.3333 170.5,46.5C 169.596,45.791 169.263,44.791 169.5,43.5C 169.5,42.8333 169.167,42.5 168.5,42.5C 170.838,40.9605 173.505,40.2938 176.5,40.5 Z"/></g>
<g><path style="opacity:1" fill="#542e88" d="M 419.5,34.5 C 417.84,39.8236 416.174,45.1569 414.5,50.5C 413.713,52.1042 412.38,52.7709 410.5,52.5C 412.488,48.3714 413.988,44.0381 415,39.5C 415.656,37.0139 417.156,35.3472 419.5,34.5 Z"/></g>
<g><path style="opacity:1" fill="#3e349b" d="M 30.5,36.5 C 27.5513,42.7288 24.8846,49.0622 22.5,55.5C 21.8333,55.5 21.1667,55.5 20.5,55.5C 22.8527,48.4607 26.0194,41.794 30,35.5C 30.3988,35.7284 30.5654,36.0618 30.5,36.5 Z"/></g>
<g><path style="opacity:1" fill="#46a0bf" d="M 124.5,30.5 C 124.833,30.5 125.167,30.5 125.5,30.5C 125.5,35.5 125.5,40.5 125.5,45.5C 124.183,51.6783 124.183,58.0117 125.5,64.5C 126.182,65.2427 126.849,65.9094 127.5,66.5C 127.833,67.8333 128.167,69.1667 128.5,70.5C 126.583,69.8836 125.416,68.5503 125,66.5C 124.506,68.1341 124.34,69.8008 124.5,71.5C 123.521,68.3752 123.187,65.0419 123.5,61.5C 123.5,55.8333 123.5,50.1667 123.5,44.5C 124.127,39.8592 124.46,35.1925 124.5,30.5 Z"/></g>
<g><path style="opacity:1" fill="#826059" d="M 125.5,30.5 C 126.167,30.5 126.833,30.5 127.5,30.5C 126.902,35.813 126.569,41.1463 126.5,46.5C 125.833,46.5 125.5,46.1667 125.5,45.5C 125.5,40.5 125.5,35.5 125.5,30.5 Z"/></g>
<g><path style="opacity:1" fill="#4396b2" d="M 258.5,41.5 C 258.5,42.1667 258.5,42.8333 258.5,43.5C 254.167,50.1667 249.833,56.8333 245.5,63.5C 246.167,61.5 246.833,59.5 247.5,57.5C 250.132,53.1891 252.799,48.8557 255.5,44.5C 256.272,43.3065 257.272,42.3065 258.5,41.5 Z"/></g>
<g><path style="opacity:1" fill="#c82652" d="M 467.5,43.5 C 473.979,44.4907 480.646,44.824 487.5,44.5C 483.956,46.2684 479.956,47.1018 475.5,47C 477.382,47.1981 479.048,47.6981 480.5,48.5C 476.326,48.3336 472.326,49.0003 468.5,50.5C 468.179,48.9519 467.179,48.2852 465.5,48.5C 466.263,47.7321 467.263,47.2321 468.5,47C 465.639,47.0302 463.305,46.1969 461.5,44.5C 463.435,43.8505 465.435,43.5172 467.5,43.5 Z"/></g>
<g><path style="opacity:1" fill="#60234f" d="M 487.5,44.5 C 491.548,44.3946 495.548,44.7279 499.5,45.5C 499.5,46.1667 499.5,46.8333 499.5,47.5C 494.591,47.8005 489.591,47.9672 484.5,48C 486.437,48.1216 487.77,48.955 488.5,50.5C 485.523,52.4667 482.523,54.4667 479.5,56.5C 479.5,55.8333 479.167,55.5 478.5,55.5C 478.5,54.8333 478.833,54.5 479.5,54.5C 482.022,52.8277 484.688,51.3277 487.5,50C 485.866,49.5065 484.199,49.3398 482.5,49.5C 482.158,48.6618 481.492,48.3284 480.5,48.5C 479.048,47.6981 477.382,47.1981 475.5,47C 479.956,47.1018 483.956,46.2684 487.5,44.5 Z"/></g>
<g><path style="opacity:1" fill="#556d82" d="M 140.5,43.5 C 140.369,44.2389 140.536,44.9056 141,45.5C 141.708,44.6195 142.542,43.9528 143.5,43.5C 143.167,44.8333 142.833,46.1667 142.5,47.5C 140.833,49.5 139.167,51.5 137.5,53.5C 137.751,51.8297 138.418,50.3297 139.5,49C 138.748,48.3292 138.414,47.4959 138.5,46.5C 138.932,45.2905 139.599,44.2905 140.5,43.5 Z"/></g>
<g><path style="opacity:1" fill="#e29a26" d="M 234.5,56.5 C 233.167,56.5 232.5,55.8333 232.5,54.5C 232.662,52.4727 232.495,50.4727 232,48.5C 231.71,50.0441 231.044,51.3774 230,52.5C 229.536,51.9056 229.369,51.2389 229.5,50.5C 229.888,47.1212 230.555,43.7879 231.5,40.5C 232.308,42.4233 232.808,44.4233 233,46.5C 233.202,44.7444 233.702,43.0777 234.5,41.5C 235.086,41.7093 235.586,42.0426 236,42.5C 236.477,47.2619 235.977,51.9286 234.5,56.5 Z"/></g>
<g><path style="opacity:1" fill="#4e2856" d="M 266.5,39.5 C 266.058,43.1545 265.724,46.8212 265.5,50.5C 265.672,51.4916 265.338,52.1583 264.5,52.5C 263.5,51.1667 262.5,51.1667 261.5,52.5C 260.85,52.1961 260.183,51.8627 259.5,51.5C 258.831,53.6309 258.165,55.6309 257.5,57.5C 257.669,52.8189 258.002,48.1522 258.5,43.5C 258.5,42.8333 258.5,42.1667 258.5,41.5C 259.268,42.2625 259.768,43.2625 260,44.5C 260.438,42.3582 261.272,41.0249 262.5,40.5C 262.328,39.5084 262.662,38.8417 263.5,38.5C 264.75,38.4226 265.583,37.756 266,36.5C 266.483,37.448 266.649,38.448 266.5,39.5 Z"/></g>
<g><path style="opacity:1" fill="#72256d" d="M 321.5,21.5 C 316.054,27.1202 311.554,33.4536 308,40.5C 307.333,41.5 307.333,42.5 308,43.5C 309.333,41.5 310.667,39.5 312,37.5C 312.333,39.1667 312.667,40.8333 313,42.5C 313.383,41.944 313.883,41.6107 314.5,41.5C 314.672,42.4916 314.338,43.1583 313.5,43.5C 310.457,45.8925 307.624,48.5592 305,51.5C 304.313,49.4325 304.48,47.4325 305.5,45.5C 305.333,45.1667 305.167,44.8333 305,44.5C 304.292,45.3805 303.458,46.0472 302.5,46.5C 305.584,38.6535 309.917,31.6535 315.5,25.5C 317.246,23.7484 319.246,22.4151 321.5,21.5 Z"/></g>
<g><path style="opacity:1" fill="#4c2b66" d="M 371.5,32.5 C 372.268,33.2625 372.768,34.2625 373,35.5C 373.499,39.4862 373.666,43.4862 373.5,47.5C 371.61,47.7035 370.11,47.0368 369,45.5C 368.667,46.5 368.333,47.5 368,48.5C 367.581,47.3279 366.915,46.3279 366,45.5C 363.679,47.8196 362.179,50.4862 361.5,53.5C 361.631,52.7611 361.464,52.0944 361,51.5C 360.478,54.2813 359.311,56.6146 357.5,58.5C 359.927,51.3858 360.927,44.0525 360.5,36.5C 361.496,36.5858 362.329,36.2524 363,35.5C 363.935,40.0018 365.269,40.3351 367,36.5C 367.333,37.8333 367.667,39.1667 368,40.5C 368.442,38.3215 369.442,37.6548 371,38.5C 371.495,36.5273 371.662,34.5273 371.5,32.5 Z"/></g>
<g><path style="opacity:1" fill="#4f8cc0" d="M 446.5,39.5 C 447.167,39.5 447.833,39.5 448.5,39.5C 448.5,40.1667 448.5,40.8333 448.5,41.5C 447.5,42.1667 446.5,42.8333 445.5,43.5C 445.19,42.2617 444.69,42.2617 444,43.5C 442.333,46.5 440.667,49.5 439,52.5C 437.624,49.8753 436.458,49.8753 435.5,52.5C 434.599,53.2905 433.932,54.2905 433.5,55.5C 433.167,54.1667 432.833,52.8333 432.5,51.5C 433.383,48.2957 435.05,45.6291 437.5,43.5C 440.541,42.1668 443.541,40.8335 446.5,39.5 Z"/></g>
<g><path style="opacity:1" fill="#6b3779" d="M 260.5,33.5 C 261.478,33.811 262.145,34.4777 262.5,35.5C 259.845,36.3166 259.845,37.9832 262.5,40.5C 261.272,41.0249 260.438,42.3582 260,44.5C 259.768,43.2625 259.268,42.2625 258.5,41.5C 257.272,42.3065 256.272,43.3065 255.5,44.5C 255.631,43.7611 255.464,43.0944 255,42.5C 252.578,46.3438 249.911,50.0105 247,53.5C 245.989,54.3366 244.822,54.67 243.5,54.5C 247.356,48.1087 251.689,42.1087 256.5,36.5C 258.129,36.6277 259.462,35.6277 260.5,33.5 Z"/></g>
<g><path style="opacity:1" fill="#672670" d="M 343.5,17.5 C 338.236,20.929 333.736,25.2624 330,30.5C 329.319,32.5292 328.986,34.5292 329,36.5C 330.129,34.8588 331.629,33.8588 333.5,33.5C 329.468,39.19 325.468,44.8566 321.5,50.5C 320.599,51.2905 319.932,52.2905 319.5,53.5C 318.833,53.5 318.5,53.1667 318.5,52.5C 318.673,49.8205 319.673,47.4872 321.5,45.5C 320.388,44.7348 319.721,43.7348 319.5,42.5C 322.62,35.8642 327.12,30.1976 333,25.5C 333.528,24.184 333.028,23.5173 331.5,23.5C 335.151,21.0078 339.151,19.0078 343.5,17.5 Z"/></g>
<g><path style="opacity:1" fill="#e38912" d="M 424.5,39.5 C 422.774,44.6171 420.774,49.6171 418.5,54.5C 417.833,54.5 417.5,54.1667 417.5,53.5C 419.035,49.5621 420.368,45.5621 421.5,41.5C 422.558,40.3998 423.392,39.0664 424,37.5C 424.464,38.0944 424.631,38.7611 424.5,39.5 Z"/></g>
<g><path style="opacity:1" fill="#a81250" d="M 461.5,44.5 C 463.305,46.1969 465.639,47.0302 468.5,47C 467.263,47.2321 466.263,47.7321 465.5,48.5C 460.266,50.0514 455.266,52.0514 450.5,54.5C 450.627,47.3758 454.294,44.0425 461.5,44.5 Z"/></g>
<g><path style="opacity:1" fill="#cf484b" d="M 120.5,32.5 C 120.842,31.6618 121.508,31.3284 122.5,31.5C 122.5,35.8333 122.5,40.1667 122.5,44.5C 123.089,48.9707 122.423,52.9707 120.5,56.5C 120.5,54.1667 120.5,51.8333 120.5,49.5C 121.833,43.8333 121.833,38.1667 120.5,32.5 Z"/></g>
<g><path style="opacity:1" fill="#a03368" d="M 142.5,47.5 C 142.833,47.5 143.167,47.5 143.5,47.5C 141.513,51.4734 139.513,55.4734 137.5,59.5C 136.624,59.6309 135.957,59.2975 135.5,58.5C 136.456,56.9246 137.123,55.258 137.5,53.5C 139.167,51.5 140.833,49.5 142.5,47.5 Z"/></g>
<g><path style="opacity:1" fill="#b84b73" d="M 168.5,42.5 C 169.167,42.5 169.5,42.8333 169.5,43.5C 166.908,48.4482 164.241,52.7816 161.5,56.5C 163.212,52.0731 165.212,47.7398 167.5,43.5C 167.5,42.8333 167.833,42.5 168.5,42.5 Z"/></g>
<g><path style="opacity:1" fill="#494679" d="M 275.5,42.5 C 273.404,45.9423 271.738,49.6089 270.5,53.5C 270.043,54.2975 269.376,54.6309 268.5,54.5C 268.598,52.4471 267.931,50.7804 266.5,49.5C 267.475,47.2048 268.808,45.2048 270.5,43.5C 270.942,44.2312 271.109,45.2312 271,46.5C 271.876,44.3645 273.376,43.0312 275.5,42.5 Z"/></g>
<g><path style="opacity:1" fill="#343c77" d="M 373.5,47.5 C 373.81,50.7131 373.477,53.7131 372.5,56.5C 372.657,55.1266 372.49,53.7932 372,52.5C 370.984,53.6341 370.317,53.3008 370,51.5C 368.903,53.0526 367.57,54.386 366,55.5C 364.846,53.0426 363.512,53.0426 362,55.5C 361.536,54.9056 361.369,54.2389 361.5,53.5C 362.179,50.4862 363.679,47.8196 366,45.5C 366.915,46.3279 367.581,47.3279 368,48.5C 368.333,47.5 368.667,46.5 369,45.5C 370.11,47.0368 371.61,47.7035 373.5,47.5 Z"/></g>
<g><path style="opacity:1" fill="#b61848" d="M 482.5,49.5 C 484.199,49.3398 485.866,49.5065 487.5,50C 484.688,51.3277 482.022,52.8277 479.5,54.5C 479.5,53.1667 478.833,52.5 477.5,52.5C 478.965,51.2632 480.632,50.2632 482.5,49.5 Z"/></g>
<g><path style="opacity:1" fill="#2e2454" d="M 60.5,41.5 C 55.6802,49.3008 48.6802,53.9675 39.5,55.5C 38.8333,55.1667 38.1667,54.8333 37.5,54.5C 37.1583,53.6618 36.4916,53.3284 35.5,53.5C 40.0277,51.5961 44.6944,49.7628 49.5,48C 53.0709,45.5794 56.7375,43.4127 60.5,41.5 Z"/></g>
<g><path style="opacity:1" fill="#6a2f65" d="M 178.5,39.5 C 176.485,42.8691 174.485,46.2024 172.5,49.5C 171.761,49.369 171.094,49.5357 170.5,50C 169.418,52.6871 167.751,54.8538 165.5,56.5C 167.153,53.1932 168.82,49.8599 170.5,46.5C 172.33,44.3333 174.33,42.3333 176.5,40.5C 176.842,39.6618 177.508,39.3284 178.5,39.5 Z"/></g>
<g><path style="opacity:1" fill="#100d18" d="M 93.5,50.5 C 92.3024,53.4262 91.3024,56.4262 90.5,59.5C 87.8555,61.2419 84.8555,61.9086 81.5,61.5C 85.1695,56.8007 89.1695,53.134 93.5,50.5 Z"/></g>
<g><path style="opacity:1" fill="#de1a54" d="M 120.5,34.5 C 120.391,38.3913 119.391,42.058 117.5,45.5C 118.247,45.7365 119.08,46.0698 120,46.5C 120.464,47.0944 120.631,47.7611 120.5,48.5C 120.167,48.5 119.833,48.5 119.5,48.5C 117.929,50.6351 116.596,52.9684 115.5,55.5C 113.314,56.8233 111.814,58.8233 111,61.5C 111.423,59.0967 111.256,56.7634 110.5,54.5C 113.887,47.7266 117.22,41.0599 120.5,34.5 Z"/></g>
<g><path style="opacity:1" fill="#3bccc8" d="M 280.5,41.5 C 281.167,41.5 281.833,41.5 282.5,41.5C 282.766,45.6049 282.266,49.6049 281,53.5C 280.333,54.1667 279.667,54.8333 279,55.5C 278.505,53.5273 278.338,51.5273 278.5,49.5C 278.56,46.6592 279.226,43.9925 280.5,41.5 Z"/></g>
<g><path style="opacity:1" fill="#48aadc" d="M 331.5,23.5 C 333.028,23.5173 333.528,24.184 333,25.5C 327.12,30.1976 322.62,35.8642 319.5,42.5C 315.758,47.3173 313.091,52.6506 311.5,58.5C 311.698,56.4247 311.865,54.4247 312,52.5C 309.642,55.665 307.142,58.665 304.5,61.5C 304.5,60.8333 304.5,60.1667 304.5,59.5C 307.665,54.9028 310.665,49.5695 313.5,43.5C 314.338,43.1583 314.672,42.4916 314.5,41.5C 320.111,35.5526 325.778,29.5526 331.5,23.5 Z"/></g>
<g><path style="opacity:1" fill="#8b134d" d="M 405.5,31.5 C 395.377,43.4133 388.711,57.08 385.5,72.5C 385.167,72.5 384.833,72.5 384.5,72.5C 385.2,68.2022 385.533,63.8689 385.5,59.5C 387.734,56.15 389.4,52.4834 390.5,48.5C 389.632,46.2038 388.298,45.5371 386.5,46.5C 387.462,43.2432 388.962,40.2432 391,37.5C 391.151,40.1193 391.985,42.4527 393.5,44.5C 396.322,40.8721 399.155,37.2054 402,33.5C 402.816,32.1772 403.983,31.5106 405.5,31.5 Z"/></g>
<g><path style="opacity:1" fill="#df6724" d="M 465.5,48.5 C 467.179,48.2852 468.179,48.9519 468.5,50.5C 463.119,52.2947 457.786,54.2947 452.5,56.5C 451.287,56.2528 450.62,55.5862 450.5,54.5C 455.266,52.0514 460.266,50.0514 465.5,48.5 Z"/></g>
<g><path style="opacity:1" fill="#7a164b" d="M 68.5,31.5 C 68.2322,33.099 68.5655,34.4324 69.5,35.5C 66.0027,39.1659 62.6693,42.9992 59.5,47C 61.788,47.4175 63.788,46.7509 65.5,45C 67.7879,42.2567 69.9545,39.4233 72,36.5C 72.6667,37.5 72.6667,38.5 72,39.5C 66.1347,46.8711 58.968,52.5378 50.5,56.5C 50.2648,55.9033 49.7648,55.5699 49,55.5C 46.7228,56.3703 44.3894,57.0369 42,57.5C 40.6244,57.3158 39.7911,56.6491 39.5,55.5C 48.6802,53.9675 55.6802,49.3008 60.5,41.5C 63.5771,38.4307 66.2437,35.0974 68.5,31.5 Z"/></g>
<g><path style="opacity:1" fill="#b8164c" d="M 215.5,32.5 C 215.5,33.1667 215.833,33.5 216.5,33.5C 211.37,37.9661 207.37,43.2994 204.5,49.5C 204.97,50.463 205.637,50.463 206.5,49.5C 205.75,53.5319 204.25,57.1986 202,60.5C 201.503,62.8098 201.337,65.1432 201.5,67.5C 200.523,64.7131 200.19,61.7131 200.5,58.5C 202.419,47.9877 207.419,39.3211 215.5,32.5 Z"/></g>
<g><path style="opacity:1" fill="#47bdbf" d="M 266.5,49.5 C 267.931,50.7804 268.598,52.4471 268.5,54.5C 267.263,55.9649 266.263,57.6316 265.5,59.5C 264.532,57.3926 264.198,55.0593 264.5,52.5C 265.338,52.1583 265.672,51.4916 265.5,50.5C 266.167,50.5 266.5,50.1667 266.5,49.5 Z"/></g>
<g><path style="opacity:1" fill="#dc1165" d="M 385.5,59.5 C 381.9,62.1552 380.233,65.8218 380.5,70.5C 379.778,70.9175 379.278,71.5842 379,72.5C 379.418,63.7396 381.585,55.4063 385.5,47.5C 385.5,46.8333 385.833,46.5 386.5,46.5C 388.298,45.5371 389.632,46.2038 390.5,48.5C 389.4,52.4834 387.734,56.15 385.5,59.5 Z"/></g>
<g><path style="opacity:1" fill="#e42a2d" d="M 421.5,41.5 C 420.368,45.5621 419.035,49.5621 417.5,53.5C 416.833,54.1667 416.167,54.8333 415.5,55.5C 415.5,53.8333 415.5,52.1667 415.5,50.5C 416.757,47.904 417.924,45.2373 419,42.5C 419.333,42.8333 419.667,43.1667 420,43.5C 420.278,42.5842 420.778,41.9175 421.5,41.5 Z"/></g>
<g><path style="opacity:1" fill="#34305a" d="M 138.5,46.5 C 138.414,47.4959 138.748,48.3292 139.5,49C 138.418,50.3297 137.751,51.8297 137.5,53.5C 136.167,54.1667 134.833,54.8333 133.5,55.5C 134.774,52.2402 136.44,49.2402 138.5,46.5 Z"/></g>
<g><path style="opacity:1" fill="#5e9095" d="M 197.5,46.5 C 198.167,46.5 198.833,46.5 199.5,46.5C 199.598,52.2052 197.932,57.2052 194.5,61.5C 196.881,56.8021 197.881,51.8021 197.5,46.5 Z"/></g>
<g><path style="opacity:1" fill="#ae1c4d" d="M 255.5,44.5 C 252.799,48.8557 250.132,53.1891 247.5,57.5C 247.631,56.6236 247.298,55.9569 246.5,55.5C 245.833,56.5 245.167,57.5 244.5,58.5C 243.818,57.7573 243.151,57.0906 242.5,56.5C 242.833,55.8333 243.167,55.1667 243.5,54.5C 244.822,54.67 245.989,54.3366 247,53.5C 249.911,50.0105 252.578,46.3438 255,42.5C 255.464,43.0944 255.631,43.7611 255.5,44.5 Z"/></g>
<g><path style="opacity:1" fill="#c32c38" d="M 480.5,57.5 C 479.833,57.5 479.5,57.1667 479.5,56.5C 482.523,54.4667 485.523,52.4667 488.5,50.5C 490.068,49.5269 491.735,49.3603 493.5,50C 489.139,52.5117 484.806,55.0117 480.5,57.5 Z"/></g>
<g><path style="opacity:1" fill="#6c1654" d="M 18.5,44.5 C 18.3505,45.552 18.5172,46.552 19,47.5C 19.7083,46.6195 20.5416,45.9528 21.5,45.5C 20.1667,48.8333 18.8333,52.1667 17.5,55.5C 13.9581,55.8128 10.6248,55.4794 7.5,54.5C 9.5273,54.6621 11.5273,54.4955 13.5,54C 14.7987,50.5662 16.4654,47.3995 18.5,44.5 Z"/></g>
<g><path style="opacity:1" fill="#473152" d="M 90.5,43.5 C 86.468,47.8317 87.1346,48.4984 92.5,45.5C 88.5368,49.9645 84.3702,54.2978 80,58.5C 78.9887,57.6634 77.8221,57.33 76.5,57.5C 80.1879,51.8121 84.8546,47.1454 90.5,43.5 Z"/></g>
<g><path style="opacity:1" fill="#39538b" d="M 106.5,44.5 C 104.164,49.8378 101.831,55.1711 99.5,60.5C 98.4265,59.7494 98.2599,58.7494 99,57.5C 100.847,53.8068 102.68,50.1401 104.5,46.5C 104.833,45.5 105.5,44.8333 106.5,44.5 Z"/></g>
<g><path style="opacity:1" fill="#6a4475" d="M 125.5,45.5 C 125.5,46.1667 125.833,46.5 126.5,46.5C 126.833,46.5 127.167,46.5 127.5,46.5C 127.5,53.1667 127.5,59.8333 127.5,66.5C 126.849,65.9094 126.182,65.2427 125.5,64.5C 124.183,58.0117 124.183,51.6783 125.5,45.5 Z"/></g>
<g><path style="opacity:1" fill="#603e86" d="M 196.5,42.5 C 197.434,43.5676 197.768,44.901 197.5,46.5C 197.881,51.8021 196.881,56.8021 194.5,61.5C 193.075,63.0311 192.409,62.6977 192.5,60.5C 194.843,56.1369 196.176,51.4703 196.5,46.5C 196.5,45.1667 196.5,43.8333 196.5,42.5 Z"/></g>
<g><path style="opacity:1" fill="#5f79cb" d="M 445.5,43.5 C 443.529,48.1051 441.029,52.4385 438,56.5C 435.721,61.8481 433.554,67.1814 431.5,72.5C 429.824,71.8166 429.157,70.4832 429.5,68.5C 431.743,64.3144 433.91,59.9811 436,55.5C 436.74,54.2506 436.573,53.2506 435.5,52.5C 436.458,49.8753 437.624,49.8753 439,52.5C 440.667,49.5 442.333,46.5 444,43.5C 444.69,42.2617 445.19,42.2617 445.5,43.5 Z"/></g>
<g><path style="opacity:1" fill="#d04e31" d="M 477.5,52.5 C 478.833,52.5 479.5,53.1667 479.5,54.5C 478.833,54.5 478.5,54.8333 478.5,55.5C 477.167,56.1667 475.833,56.8333 474.5,57.5C 474.672,56.5084 474.338,55.8417 473.5,55.5C 474.436,54.0256 475.77,53.0256 477.5,52.5 Z"/></g>
<g><path style="opacity:1" fill="#d61736" d="M 7.5,54.5 C 10.6248,55.4794 13.9581,55.8128 17.5,55.5C 18.5,55.5 19.5,55.5 20.5,55.5C 21.1667,55.5 21.8333,55.5 22.5,55.5C 22.8333,55.5 23.1667,55.5 23.5,55.5C 17.1145,56.4518 9.4478,56.7851 0.5,56.5C 0.5,55.5 0.5,54.5 0.5,53.5C 2.80562,53.9926 5.13895,54.3259 7.5,54.5 Z"/></g>
<g><path style="opacity:1" fill="#6f90ad" d="M 66.5,52.5 C 64.4687,54.5224 62.1354,56.1891 59.5,57.5C 59.1583,56.6618 58.4916,56.3284 57.5,56.5C 58.6935,55.7281 59.6935,54.7281 60.5,53.5C 62.0443,53.2969 63.3777,52.6302 64.5,51.5C 65.1835,51.8627 65.8501,52.1961 66.5,52.5 Z"/></g>
<g><path style="opacity:1" fill="#5b81d8" d="M 155.5,49.5 C 153.129,53.1899 150.462,56.5233 147.5,59.5C 148.071,55.1916 150.071,51.6916 153.5,49C 154.437,48.3083 155.103,48.475 155.5,49.5 Z"/></g>
<g><path style="opacity:1" fill="#428bae" d="M 283.5,38.5 C 283.842,39.3382 284.508,39.6716 285.5,39.5C 285.042,45.142 283.709,50.4753 281.5,55.5C 280.094,55.9731 279.427,56.9731 279.5,58.5C 278.414,58.62 277.747,59.2867 277.5,60.5C 276.731,63.1147 276.397,65.7814 276.5,68.5C 275.364,63.3186 275.364,57.9853 276.5,52.5C 277.167,51.5 277.833,50.5 278.5,49.5C 278.338,51.5273 278.505,53.5273 279,55.5C 279.667,54.8333 280.333,54.1667 281,53.5C 282.266,49.6049 282.766,45.6049 282.5,41.5C 282.263,40.209 282.596,39.209 283.5,38.5 Z"/></g>
<g><path style="opacity:1" fill="#623b84" d="M 313.5,43.5 C 310.665,49.5695 307.665,54.9028 304.5,59.5C 303.603,56.8357 302.27,54.5024 300.5,52.5C 300.604,50.2972 301.27,48.2972 302.5,46.5C 303.458,46.0472 304.292,45.3805 305,44.5C 305.167,44.8333 305.333,45.1667 305.5,45.5C 304.48,47.4325 304.313,49.4325 305,51.5C 307.624,48.5592 310.457,45.8925 313.5,43.5 Z"/></g>
<g><path style="opacity:1" fill="#543f85" d="M 261.5,52.5 C 261.158,57.0605 261.658,61.7272 263,66.5C 263.099,64.3474 263.933,62.6808 265.5,61.5C 265.608,68.6114 263.108,69.9447 258,65.5C 257.503,62.854 257.336,60.1873 257.5,57.5C 258.165,55.6309 258.831,53.6309 259.5,51.5C 260.183,51.8627 260.85,52.1961 261.5,52.5 Z"/></g>
<g><path style="opacity:1" fill="#d01d4e" d="M 111.5,26.5 C 109.552,29.6215 107.385,32.6215 105,35.5C 103.702,36.9456 103.535,38.2789 104.5,39.5C 102.989,41.8375 103.323,42.5042 105.5,41.5C 107.544,39.7806 109.544,38.1139 111.5,36.5C 109.807,39.1841 108.14,41.8508 106.5,44.5C 105.5,44.8333 104.833,45.5 104.5,46.5C 102.716,46.8925 101.05,47.5592 99.5,48.5C 96.4598,51.9136 94.4598,55.9136 93.5,60.5C 92.209,60.7373 91.209,60.404 90.5,59.5C 91.3024,56.4262 92.3024,53.4262 93.5,50.5C 95.4168,47.669 97.0834,44.669 98.5,41.5C 99.525,41.1034 99.6917,40.4368 99,39.5C 97.9505,40.5171 96.7839,40.6838 95.5,40C 96.7101,38.9609 97.7101,37.7942 98.5,36.5C 102.644,32.927 106.978,29.5937 111.5,26.5 Z"/></g>
<g><path style="opacity:1" fill="#861a55" d="M 122.5,44.5 C 122.833,44.5 123.167,44.5 123.5,44.5C 123.5,50.1667 123.5,55.8333 123.5,61.5C 122.833,61.5 122.167,61.5 121.5,61.5C 120.962,59.8828 120.629,58.2161 120.5,56.5C 122.423,52.9707 123.089,48.9707 122.5,44.5 Z"/></g>
<g><path style="opacity:1" fill="#e82b4f" d="M 207.5,47.5 C 206.886,50.9104 207.552,54.2437 209.5,57.5C 209.167,59.5 208.833,61.5 208.5,63.5C 207.837,65.0419 207.17,66.7086 206.5,68.5C 205.808,67.9747 205.308,67.3081 205,66.5C 203.989,67.3366 202.822,67.67 201.5,67.5C 201.337,65.1432 201.503,62.8098 202,60.5C 204.25,57.1986 205.75,53.5319 206.5,49.5C 206.833,48.8333 207.167,48.1667 207.5,47.5 Z"/></g>
<g><path style="opacity:1" fill="#413d7f" d="M 268.5,54.5 C 268.293,57.2406 267.293,59.5739 265.5,61.5C 265.5,60.8333 265.5,60.1667 265.5,59.5C 266.263,57.6316 267.263,55.9649 268.5,54.5 Z"/></g>
<g><path style="opacity:1" fill="#2c688f" d="M 361.5,53.5 C 361.369,54.2389 361.536,54.9056 362,55.5C 363.512,53.0426 364.846,53.0426 366,55.5C 367.57,54.386 368.903,53.0526 370,51.5C 370.317,53.3008 370.984,53.6341 372,52.5C 372.49,53.7932 372.657,55.1266 372.5,56.5C 372.59,59.1522 371.924,61.4855 370.5,63.5C 370.441,61.2776 369.275,60.2776 367,60.5C 365.674,60.7549 364.674,61.4216 364,62.5C 363.716,60.1144 362.716,59.4477 361,60.5C 360.667,59.8333 360.333,59.1667 360,58.5C 359.292,59.3805 358.458,60.0472 357.5,60.5C 357.5,59.8333 357.5,59.1667 357.5,58.5C 359.311,56.6146 360.478,54.2813 361,51.5C 361.464,52.0944 361.631,52.7611 361.5,53.5 Z"/></g>
<g><path style="opacity:1" fill="#572748" d="M 34.5,53.5 C 32.7745,55.2279 31.4411,57.2279 30.5,59.5C 22.7572,58.8701 15.4238,59.5367 8.5,61.5C 7.83333,61.5 7.16667,61.5 6.5,61.5C 5.60908,60.7387 4.94242,59.7387 4.5,58.5C 11.8108,57.6687 19.1441,57.1687 26.5,57C 28.1193,56.7645 29.1193,55.9311 29.5,54.5C 31.0418,53.6993 32.7085,53.366 34.5,53.5 Z"/></g>
<g><path style="opacity:1" fill="#612c49" d="M 37.5,54.5 C 38.1667,54.8333 38.8333,55.1667 39.5,55.5C 39.7911,56.6491 40.6244,57.3158 42,57.5C 44.3894,57.0369 46.7228,56.3703 49,55.5C 49.7648,55.5699 50.2648,55.9033 50.5,56.5C 48.0763,57.0305 45.743,57.8638 43.5,59C 42.2617,59.69 42.2617,60.19 43.5,60.5C 39.9892,61.6641 36.3225,62.6641 32.5,63.5C 31.315,59.1268 32.9817,56.1268 37.5,54.5 Z"/></g>
<g><path style="opacity:1" fill="#4c5277" d="M 169.5,43.5 C 169.263,44.791 169.596,45.791 170.5,46.5C 168.82,49.8599 167.153,53.1932 165.5,56.5C 162.251,60.659 159.751,65.3256 158,70.5C 157.329,71.2524 156.496,71.5858 155.5,71.5C 155.5,71.1667 155.5,70.8333 155.5,70.5C 157.141,67.7236 158.641,64.7236 160,61.5C 160.74,60.2506 160.573,59.2506 159.5,58.5C 159.833,57.5 160.5,56.8333 161.5,56.5C 164.241,52.7816 166.908,48.4482 169.5,43.5 Z"/></g>
<g><path style="opacity:1" fill="#36343d" d="M 30.5,59.5 C 30.5,60.5 30.5,61.5 30.5,62.5C 23.1319,62.6831 15.7985,62.3498 8.5,61.5C 15.4238,59.5367 22.7572,58.8701 30.5,59.5 Z"/></g>
<g><path style="opacity:1" fill="#2d3e50" d="M 98.5,41.5 C 97.0834,44.669 95.4168,47.669 93.5,50.5C 89.1695,53.134 85.1695,56.8007 81.5,61.5C 78.8728,62.0916 76.2062,62.4249 73.5,62.5C 73.7497,60.326 74.7497,58.6594 76.5,57.5C 77.8221,57.33 78.9887,57.6634 80,58.5C 84.3702,54.2978 88.5368,49.9645 92.5,45.5C 94.8132,44.4995 96.8132,43.1662 98.5,41.5 Z"/></g>
<g><path style="opacity:1" fill="#be145c" d="M 110.5,54.5 C 111.256,56.7634 111.423,59.0967 111,61.5C 111.814,58.8233 113.314,56.8233 115.5,55.5C 113.364,59.5763 112.03,63.9097 111.5,68.5C 111.784,70.4147 111.451,72.0813 110.5,73.5C 110.657,72.1266 110.49,70.7932 110,69.5C 109.102,72.0691 107.935,74.4024 106.5,76.5C 107.058,72.9895 107.724,69.4895 108.5,66C 108.526,61.5645 107.859,61.3978 106.5,65.5C 106.5,65.8333 106.5,66.1667 106.5,66.5C 105.596,65.791 105.263,64.791 105.5,63.5C 100.786,63.8266 96.1196,63.4933 91.5,62.5C 92.325,61.6143 93.325,61.281 94.5,61.5C 99.0323,61.8182 103.366,61.4849 107.5,60.5C 108.13,58.2504 109.13,56.2504 110.5,54.5 Z"/></g>
<g><path style="opacity:1" fill="#464fa0" d="M 300.5,52.5 C 302.27,54.5024 303.603,56.8357 304.5,59.5C 304.5,60.1667 304.5,60.8333 304.5,61.5C 303.366,64.3704 302.7,67.3704 302.5,70.5C 301.683,68.0314 301.183,65.3647 301,62.5C 298.674,66.0167 296.84,69.6834 295.5,73.5C 295.791,66.0598 297.458,59.0598 300.5,52.5 Z"/></g>
<g><path style="opacity:1" fill="#59d4de" d="M 57.5,56.5 C 58.4916,56.3284 59.1583,56.6618 59.5,57.5C 54.3014,60.7933 48.6347,63.1266 42.5,64.5C 42.5,63.8333 42.5,63.1667 42.5,62.5C 47.6127,60.7768 52.6127,58.7768 57.5,56.5 Z"/></g>
<g><path style="opacity:1" fill="#a41872" d="M 104.5,46.5 C 102.68,50.1401 100.847,53.8068 99,57.5C 98.2599,58.7494 98.4265,59.7494 99.5,60.5C 102.167,60.5 104.833,60.5 107.5,60.5C 103.366,61.4849 99.0323,61.8182 94.5,61.5C 95.969,57.0932 97.6357,52.7599 99.5,48.5C 101.05,47.5592 102.716,46.8925 104.5,46.5 Z"/></g>
<g><path style="opacity:1" fill="#63428f" d="M 191.5,42.5 C 192.85,45.9519 193.35,49.6186 193,53.5C 190.67,57.3216 188.17,60.9883 185.5,64.5C 184.624,64.6309 183.957,64.2975 183.5,63.5C 184.952,62.0603 185.952,60.3936 186.5,58.5C 190.166,53.8339 191.832,48.5005 191.5,42.5 Z"/></g>
<g><path style="opacity:1" fill="#508ab0" d="M 321.5,50.5 C 318.539,59.3417 316.039,68.3417 314,77.5C 313.501,81.1516 313.335,84.8183 313.5,88.5C 312.596,87.791 312.263,86.791 312.5,85.5C 312.795,74.3531 315.129,63.6865 319.5,53.5C 319.932,52.2905 320.599,51.2905 321.5,50.5 Z"/></g>
<g><path style="opacity:1" fill="#c75c8d" d="M 435.5,52.5 C 436.573,53.2506 436.74,54.2506 436,55.5C 433.91,59.9811 431.743,64.3144 429.5,68.5C 429.965,63.9027 431.298,59.5693 433.5,55.5C 433.932,54.2905 434.599,53.2905 435.5,52.5 Z"/></g>
<g><path style="opacity:1" fill="#53609c" d="M 119.5,48.5 C 119.5,49.8333 119.5,51.1667 119.5,52.5C 116.311,56.5583 114.477,61.225 114,66.5C 113.292,67.3805 112.458,68.0472 111.5,68.5C 112.03,63.9097 113.364,59.5763 115.5,55.5C 116.596,52.9684 117.929,50.6351 119.5,48.5 Z"/></g>
<g><path style="opacity:1" fill="#473d5d" d="M 478.5,55.5 C 479.167,55.5 479.5,55.8333 479.5,56.5C 479.5,57.1667 479.833,57.5 480.5,57.5C 471.935,63.3931 464.268,70.3931 457.5,78.5C 457.047,79.4584 456.381,80.2917 455.5,81C 451.695,81.5343 448.029,82.5343 444.5,84C 442.137,86.0836 442.137,87.917 444.5,89.5C 443.292,90.2341 441.959,90.5674 440.5,90.5C 440.144,87.4359 440.977,84.7693 443,82.5C 447.649,77.6852 452.482,73.0185 457.5,68.5C 457.517,70.0281 458.184,70.5281 459.5,70C 464.161,65.3487 469.161,61.182 474.5,57.5C 475.833,56.8333 477.167,56.1667 478.5,55.5 Z"/></g>
<g><path style="opacity:1" fill="#8f3e6b" d="M 99.5,48.5 C 97.6357,52.7599 95.969,57.0932 94.5,61.5C 93.325,61.281 92.325,61.6143 91.5,62.5C 96.1196,63.4933 100.786,63.8266 105.5,63.5C 105.263,64.791 105.596,65.791 106.5,66.5C 104.878,70.3219 103.878,74.3219 103.5,78.5C 103.5,78.8333 103.5,79.1667 103.5,79.5C 102.848,78.5514 102.514,77.3847 102.5,76C 103.068,72.7997 103.735,69.6331 104.5,66.5C 101.615,66.1936 98.9479,66.5269 96.5,67.5C 96.1667,67.5 95.8333,67.5 95.5,67.5C 96.5893,65.8829 98.256,65.0496 100.5,65C 97.854,64.5026 95.1873,64.3359 92.5,64.5C 90.742,64.1231 89.0754,63.4565 87.5,62.5C 81.2266,63.4596 74.8933,63.7929 68.5,63.5C 69.9187,62.5489 71.5853,62.2155 73.5,62.5C 76.2062,62.4249 78.8728,62.0916 81.5,61.5C 84.8555,61.9086 87.8555,61.2419 90.5,59.5C 91.209,60.404 92.209,60.7373 93.5,60.5C 94.4598,55.9136 96.4598,51.9136 99.5,48.5 Z"/></g>
<g><path style="opacity:1" fill="#5c5c89" d="M 232.5,54.5 C 232.5,55.8333 233.167,56.5 234.5,56.5C 233.277,62.6213 230.277,67.6213 225.5,71.5C 224.527,69.9317 224.36,68.265 225,66.5C 227.275,62.2676 229.775,58.2676 232.5,54.5 Z"/></g>
<g><path style="opacity:1" fill="#4095c4" d="M 261.5,52.5 C 262.5,51.1667 263.5,51.1667 264.5,52.5C 264.198,55.0593 264.532,57.3926 265.5,59.5C 265.5,60.1667 265.5,60.8333 265.5,61.5C 263.933,62.6808 263.099,64.3474 263,66.5C 261.658,61.7272 261.158,57.0605 261.5,52.5 Z"/></g>
<g><path style="opacity:1" fill="#613b84" d="M 60.5,53.5 C 59.6935,54.7281 58.6935,55.7281 57.5,56.5C 52.6127,58.7768 47.6127,60.7768 42.5,62.5C 39.1397,64.1876 35.8064,64.5209 32.5,63.5C 36.3225,62.6641 39.9892,61.6641 43.5,60.5C 49.2808,58.4429 54.9474,56.1096 60.5,53.5 Z"/></g>
<g><path style="opacity:1" fill="#524362" d="M 281.5,55.5 C 282.7,58.969 282.7,62.3023 281.5,65.5C 280.539,67.2646 280.205,69.2646 280.5,71.5C 280.167,71.5 279.833,71.5 279.5,71.5C 279.5,67.1667 279.5,62.8333 279.5,58.5C 279.427,56.9731 280.094,55.9731 281.5,55.5 Z"/></g>
<g><path style="opacity:1" fill="#791856" d="M 6.5,61.5 C 7.16667,61.5 7.83333,61.5 8.5,61.5C 15.7985,62.3498 23.1319,62.6831 30.5,62.5C 30.2291,64.3797 30.8958,65.713 32.5,66.5C 32.1667,67.1667 31.8333,67.8333 31.5,68.5C 24.4835,66.0306 17.1501,64.5306 9.5,64C 8.05773,63.6232 7.05773,62.7899 6.5,61.5 Z"/></g>
<g><path style="opacity:1" fill="#4a5b9b" d="M 432.5,51.5 C 432.833,52.8333 433.167,54.1667 433.5,55.5C 431.298,59.5693 429.965,63.9027 429.5,68.5C 429.157,70.4832 429.824,71.8166 431.5,72.5C 431.405,74.7857 430.738,76.7857 429.5,78.5C 427.694,81.3382 426.694,81.0048 426.5,77.5C 427.161,74.5123 427.828,71.5123 428.5,68.5C 428.167,67.5 427.833,66.5 427.5,65.5C 426.712,66.7701 425.712,67.7701 424.5,68.5C 426.411,62.4135 429.077,56.7468 432.5,51.5 Z"/></g>
<g><path style="opacity:1" fill="#d89c2b" d="M 473.5,55.5 C 474.338,55.8417 474.672,56.5084 474.5,57.5C 469.161,61.182 464.161,65.3487 459.5,70C 458.184,70.5281 457.517,70.0281 457.5,68.5C 462.229,63.4393 467.562,59.106 473.5,55.5 Z"/></g>
<g><path style="opacity:1" fill="#8c8ba9" d="M 34.5,53.5 C 34.8333,53.5 35.1667,53.5 35.5,53.5C 36.4916,53.3284 37.1583,53.6618 37.5,54.5C 32.9817,56.1268 31.315,59.1268 32.5,63.5C 35.8064,64.5209 39.1397,64.1876 42.5,62.5C 42.5,63.1667 42.5,63.8333 42.5,64.5C 39.4928,66.1745 36.1595,66.8412 32.5,66.5C 30.8958,65.713 30.2291,64.3797 30.5,62.5C 30.5,61.5 30.5,60.5 30.5,59.5C 31.4411,57.2279 32.7745,55.2279 34.5,53.5 Z"/></g>
<g><path style="opacity:1" fill="#dd2447" d="M 92.5,64.5 C 89.5,65.1667 86.5,65.8333 83.5,66.5C 80.6146,66.1936 77.9479,66.5269 75.5,67.5C 74.8333,67.5 74.1667,67.5 73.5,67.5C 70.2999,66.2117 66.9666,66.2117 63.5,67.5C 62.3044,67.1543 62.3044,66.6543 63.5,66C 62.552,65.5172 61.552,65.3505 60.5,65.5C 62.9608,64.469 65.6275,63.8023 68.5,63.5C 74.8933,63.7929 81.2266,63.4596 87.5,62.5C 89.0754,63.4565 90.742,64.1231 92.5,64.5 Z"/></g>
<g><path style="opacity:1" fill="#3cc7c9" d="M 159.5,58.5 C 160.573,59.2506 160.74,60.2506 160,61.5C 158.641,64.7236 157.141,67.7236 155.5,70.5C 156.267,66.3017 157.601,62.3017 159.5,58.5 Z"/></g>
<g><path style="opacity:1" fill="#24a9bb" d="M 370.5,63.5 C 370.741,65.8984 370.074,67.8984 368.5,69.5C 368.5,68.1667 368.5,66.8333 368.5,65.5C 366.669,66.0522 365.003,66.0522 363.5,65.5C 362.573,67.1128 361.739,68.7795 361,70.5C 360.51,69.2068 360.343,67.8734 360.5,66.5C 358.5,66.5 356.5,66.5 354.5,66.5C 355.514,64.4261 356.514,62.4261 357.5,60.5C 358.458,60.0472 359.292,59.3805 360,58.5C 360.333,59.1667 360.667,59.8333 361,60.5C 362.716,59.4477 363.716,60.1144 364,62.5C 364.674,61.4216 365.674,60.7549 367,60.5C 369.275,60.2776 370.441,61.2776 370.5,63.5 Z"/></g>
<g><path style="opacity:1" fill="#b81156" d="M 30.5,41.5 C 30.5,43.1667 30.5,44.8333 30.5,46.5C 30.2024,49.2646 29.2024,51.7646 27.5,54C 28.0944,54.4643 28.7611,54.631 29.5,54.5C 29.1193,55.9311 28.1193,56.7645 26.5,57C 19.1441,57.1687 11.8108,57.6687 4.5,58.5C 4.94242,59.7387 5.60908,60.7387 6.5,61.5C 7.05773,62.7899 8.05773,63.6232 9.5,64C 17.1501,64.5306 24.4835,66.0306 31.5,68.5C 33.5113,71.8611 35.5113,75.1944 37.5,78.5C 36.1773,79.6078 34.6773,79.6078 33,78.5C 31.9231,79.4295 30.7564,80.0962 29.5,80.5C 28.8333,79.5 28.1667,78.5 27.5,77.5C 28.4972,77.5299 29.1639,77.0299 29.5,76C 28.2135,73.9288 27.0468,71.7621 26,69.5C 24.1722,68.2475 22.3388,68.2475 20.5,69.5C 20.5654,69.0618 20.3988,68.7284 20,68.5C 14.9154,79.2593 11.7488,90.5926 10.5,102.5C 9.5,102.5 8.5,102.5 7.5,102.5C 4.89084,101.557 2.89084,99.8903 1.5,97.5C 1.83333,96.1667 2.16667,94.8333 2.5,93.5C 4.11318,93.9443 5.27985,94.9443 6,96.5C 8.24986,93.1986 9.74986,89.5319 10.5,85.5C 11.3186,83.2278 11.9853,80.8945 12.5,78.5C 13.6988,74.9014 14.6988,71.2347 15.5,67.5C 14.5,67.5 13.5,67.5 12.5,67.5C 11.2921,66.7659 9.95875,66.4326 8.5,66.5C 8.16667,66.5 7.83333,66.5 7.5,66.5C 2.85327,64.844 0.519936,61.5107 0.5,56.5C 9.4478,56.7851 17.1145,56.4518 23.5,55.5C 25.3255,50.5156 27.6589,45.8489 30.5,41.5 Z"/></g>
<g><path style="opacity:1" fill="#3a9db5" d="M 119.5,48.5 C 119.833,48.5 120.167,48.5 120.5,48.5C 120.5,48.8333 120.5,49.1667 120.5,49.5C 120.5,51.8333 120.5,54.1667 120.5,56.5C 120.629,58.2161 120.962,59.8828 121.5,61.5C 122.541,67.7902 123.208,74.1235 123.5,80.5C 122.113,78.1234 121.279,75.4568 121,72.5C 120.169,65.854 119.669,59.1874 119.5,52.5C 119.5,51.1667 119.5,49.8333 119.5,48.5 Z"/></g>
<g><path style="opacity:1" fill="#5262ac" d="M 137.5,53.5 C 137.123,55.258 136.456,56.9246 135.5,58.5C 135.957,59.2975 136.624,59.6309 137.5,59.5C 135.102,63.2098 132.768,66.8765 130.5,70.5C 130.671,66.1475 132.005,62.1475 134.5,58.5C 134.043,57.7025 133.376,57.3691 132.5,57.5C 132.833,56.8333 133.167,56.1667 133.5,55.5C 134.833,54.8333 136.167,54.1667 137.5,53.5 Z"/></g>
<g><path style="opacity:1" fill="#e74c2a" d="M 166.5,61.5 C 165.204,65.7387 163.538,69.7387 161.5,73.5C 160.387,72.0536 160.22,70.3869 161,68.5C 162.411,65.421 163.911,62.421 165.5,59.5C 166.298,59.9569 166.631,60.6236 166.5,61.5 Z"/></g>
<g><path style="opacity:1" fill="#ba3154" d="M 232.5,54.5 C 229.775,58.2676 227.275,62.2676 225,66.5C 224.36,68.265 224.527,69.9317 225.5,71.5C 223.051,74.5558 220.051,76.8892 216.5,78.5C 215.167,78.5 213.833,78.5 212.5,78.5C 213.506,77.6043 213.506,76.9377 212.5,76.5C 212.5,75.5 212.5,74.5 212.5,73.5C 209.675,73.8384 207.508,72.8384 206,70.5C 204.442,71.3452 203.442,70.6785 203,68.5C 201.913,70.9316 201.413,70.5983 201.5,67.5C 202.822,67.67 203.989,67.3366 205,66.5C 205.308,67.3081 205.808,67.9747 206.5,68.5C 207.17,66.7086 207.837,65.0419 208.5,63.5C 206.548,72.0698 209.215,74.2365 216.5,70C 222.998,64.807 227.332,58.307 229.5,50.5C 229.369,51.2389 229.536,51.9056 230,52.5C 231.044,51.3774 231.71,50.0441 232,48.5C 232.495,50.4727 232.662,52.4727 232.5,54.5 Z"/></g>
<g><path style="opacity:1" fill="#4d7eca" d="M 319.5,42.5 C 319.721,43.7348 320.388,44.7348 321.5,45.5C 319.673,47.4872 318.673,49.8205 318.5,52.5C 313.246,62.7651 310.912,73.7651 311.5,85.5C 311.5,87.1667 311.5,88.8333 311.5,90.5C 310.5,90.5 309.5,90.5 308.5,90.5C 308.505,94.5341 308.838,98.5341 309.5,102.5C 308.11,101.101 307.11,99.4341 306.5,97.5C 307.831,84.5013 309.498,71.5013 311.5,58.5C 313.091,52.6506 315.758,47.3173 319.5,42.5 Z"/></g>
<g><path style="opacity:1" fill="#971c42" d="M 384.5,42.5 C 385.167,42.5 385.5,42.8333 385.5,43.5C 384.646,45.035 384.646,46.3684 385.5,47.5C 381.585,55.4063 379.418,63.7396 379,72.5C 379.278,71.5842 379.778,70.9175 380.5,70.5C 380.5,71.5 380.5,72.5 380.5,73.5C 379.549,74.9187 379.216,76.5853 379.5,78.5C 378.5,78.5 377.5,78.5 376.5,78.5C 376.5,72.8333 376.5,67.1667 376.5,61.5C 378.342,54.8167 381.009,48.4833 384.5,42.5 Z"/></g>
<g><path style="opacity:1" fill="#dc2c5d" d="M 414.5,50.5 C 414.833,50.5 415.167,50.5 415.5,50.5C 415.5,52.1667 415.5,53.8333 415.5,55.5C 412.94,60.2774 410.107,64.9441 407,69.5C 406.235,71.0657 406.402,72.3991 407.5,73.5C 405.833,75.5 404.167,77.5 402.5,79.5C 401.295,78.3281 401.295,76.9948 402.5,75.5C 402.03,74.537 401.363,74.537 400.5,75.5C 401.77,72.6184 402.77,69.6184 403.5,66.5C 405.868,61.8137 408.201,57.147 410.5,52.5C 412.38,52.7709 413.713,52.1042 414.5,50.5 Z"/></g>
<g><path style="opacity:1" fill="#de5929" d="M 417.5,53.5 C 417.5,54.1667 417.833,54.5 418.5,54.5C 415.591,61.3243 411.924,67.6576 407.5,73.5C 406.402,72.3991 406.235,71.0657 407,69.5C 410.107,64.9441 412.94,60.2774 415.5,55.5C 416.167,54.8333 416.833,54.1667 417.5,53.5 Z"/></g>
<g><path style="opacity:1" fill="#c8303c" d="M 247.5,57.5 C 246.833,59.5 246.167,61.5 245.5,63.5C 241.877,67.0747 239.544,71.408 238.5,76.5C 237.637,77.463 236.97,77.463 236.5,76.5C 238.226,72.0469 240.226,67.7136 242.5,63.5C 241.643,62.5748 240.643,61.9081 239.5,61.5C 240.248,59.6675 241.248,58.0009 242.5,56.5C 243.151,57.0906 243.818,57.7573 244.5,58.5C 245.167,57.5 245.833,56.5 246.5,55.5C 247.298,55.9569 247.631,56.6236 247.5,57.5 Z"/></g>
<g><path style="opacity:1" fill="#364ca5" d="M 279.5,58.5 C 279.5,62.8333 279.5,67.1667 279.5,71.5C 277.81,71.1436 276.81,70.1436 276.5,68.5C 276.397,65.7814 276.731,63.1147 277.5,60.5C 277.747,59.2867 278.414,58.62 279.5,58.5 Z"/></g>
<g><path style="opacity:1" fill="#423dad" d="M 318.5,52.5 C 318.5,53.1667 318.833,53.5 319.5,53.5C 315.129,63.6865 312.795,74.3531 312.5,85.5C 312.167,85.5 311.833,85.5 311.5,85.5C 310.912,73.7651 313.246,62.7651 318.5,52.5 Z"/></g>
<g><path style="opacity:1" fill="#b4154c" d="M 92.5,64.5 C 95.1873,64.3359 97.854,64.5026 100.5,65C 98.256,65.0496 96.5893,65.8829 95.5,67.5C 95.6747,69.6208 95.3414,71.6208 94.5,73.5C 93.6981,72.0484 93.1981,70.3817 93,68.5C 92.3333,70.5 91.6667,72.5 91,74.5C 90.6667,73.5 90.3333,72.5 90,71.5C 88.6049,78.875 87.1049,86.2083 85.5,93.5C 84.3503,88.6842 84.1837,83.6842 85,78.5C 86.3591,74.5948 87.1924,70.5948 87.5,66.5C 86.1667,66.5 84.8333,66.5 83.5,66.5C 86.5,65.8333 89.5,65.1667 92.5,64.5 Z"/></g>
<g><path style="opacity:1" fill="#742f60" d="M 106.5,76.5 C 106.167,77.5 105.5,78.1667 104.5,78.5C 105.106,74.5782 106.106,70.7448 107.5,67C 107.43,66.2352 107.097,65.7352 106.5,65.5C 107.859,61.3978 108.526,61.5645 108.5,66C 107.724,69.4895 107.058,72.9895 106.5,76.5 Z"/></g>
<g><path style="opacity:1" fill="#e5532b" d="M 239.5,61.5 C 240.643,61.9081 241.643,62.5748 242.5,63.5C 240.226,67.7136 238.226,72.0469 236.5,76.5C 236.97,77.463 237.637,77.463 238.5,76.5C 238.263,77.791 238.596,78.791 239.5,79.5C 239.103,80.525 238.437,80.6917 237.5,80C 235.274,78.3805 233.94,76.2138 233.5,73.5C 234.984,69.1996 236.984,65.1996 239.5,61.5 Z"/></g>
<g><path style="opacity:1" fill="#41c5db" d="M 311.5,58.5 C 310.143,59.5903 309.143,60.9236 308.5,62.5C 306.322,65.0365 304.322,67.7032 302.5,70.5C 302.7,67.3704 303.366,64.3704 304.5,61.5C 307.142,58.665 309.642,55.665 312,52.5C 311.865,54.4247 311.698,56.4247 311.5,58.5 Z"/></g>
<g><path style="opacity:1" fill="#2aaa9d" d="M 281.5,65.5 C 281.821,66.8175 282.154,68.1508 282.5,69.5C 282.253,70.7133 281.586,71.38 280.5,71.5C 280.205,69.2646 280.539,67.2646 281.5,65.5 Z"/></g>
<g><path style="opacity:1" fill="#ee3d3d" d="M 60.5,65.5 C 61.552,65.3505 62.552,65.5172 63.5,66C 62.3044,66.6543 62.3044,67.1543 63.5,67.5C 66.9666,66.2117 70.2999,66.2117 73.5,67.5C 72.5084,67.3284 71.8417,67.6618 71.5,68.5C 69.5853,68.2155 67.9187,68.5489 66.5,69.5C 63.1109,70.6311 59.7775,71.9645 56.5,73.5C 54.5914,72.6518 52.5914,72.3184 50.5,72.5C 50.238,71.0222 50.5713,69.6888 51.5,68.5C 54.3138,66.8954 57.3138,65.8954 60.5,65.5 Z"/></g>
<g><path style="opacity:1" fill="#5d91a9" d="M 106.5,65.5 C 107.097,65.7352 107.43,66.2352 107.5,67C 106.106,70.7448 105.106,74.5782 104.5,78.5C 104.167,78.5 103.833,78.5 103.5,78.5C 103.878,74.3219 104.878,70.3219 106.5,66.5C 106.5,66.1667 106.5,65.8333 106.5,65.5 Z"/></g>
<g><path style="opacity:1" fill="#4682c4" d="M 186.5,58.5 C 185.952,60.3936 184.952,62.0603 183.5,63.5C 183.957,64.2975 184.624,64.6309 185.5,64.5C 183.5,67.1667 181.167,69.5 178.5,71.5C 172.712,74.3945 166.712,76.7279 160.5,78.5C 161.167,77.8333 161.833,77.1667 162.5,76.5C 167.065,74.5461 171.398,72.0461 175.5,69C 179.365,65.6332 183.032,62.1332 186.5,58.5 Z"/></g>
<g><path style="opacity:1" fill="#e87c1e" d="M 245.5,63.5 C 244.071,69.1294 242.071,74.4628 239.5,79.5C 238.596,78.791 238.263,77.791 238.5,76.5C 239.544,71.408 241.877,67.0747 245.5,63.5 Z"/></g>
<g><path style="opacity:1" fill="#2a669d" d="M 7.5,66.5 C 7.83333,66.5 8.16667,66.5 8.5,66.5C 7.07097,72.1294 5.07097,77.4628 2.5,82.5C 3.76638,77.0346 5.43305,71.7013 7.5,66.5 Z"/></g>
<g><path style="opacity:1" fill="#692564" d="M 20.5,69.5 C 20.5,69.8333 20.5,70.1667 20.5,70.5C 20.5,71.1667 20.5,71.8333 20.5,72.5C 16.1269,82.3169 13.1269,92.6503 11.5,103.5C 9.90097,103.768 8.56764,103.434 7.5,102.5C 8.5,102.5 9.5,102.5 10.5,102.5C 11.7488,90.5926 14.9154,79.2593 20,68.5C 20.3988,68.7284 20.5654,69.0618 20.5,69.5 Z"/></g>
<g><path style="opacity:1" fill="#3f3486" d="M 132.5,57.5 C 133.376,57.3691 134.043,57.7025 134.5,58.5C 132.005,62.1475 130.671,66.1475 130.5,70.5C 130.5,71.8333 130.5,73.1667 130.5,74.5C 128.824,73.8166 128.157,72.4832 128.5,70.5C 128.167,69.1667 127.833,67.8333 127.5,66.5C 129.351,63.6276 131.017,60.6276 132.5,57.5 Z"/></g>
<g><path style="opacity:1" fill="#f04630" d="M 27.5,77.5 C 26.5798,76.9326 26.2465,77.5992 26.5,79.5C 26.1667,79.5 25.8333,79.5 25.5,79.5C 24.5645,76.0651 22.8978,73.0651 20.5,70.5C 20.5,70.1667 20.5,69.8333 20.5,69.5C 22.3388,68.2475 24.1722,68.2475 26,69.5C 27.0468,71.7621 28.2135,73.9288 29.5,76C 29.1639,77.0299 28.4972,77.5299 27.5,77.5 Z"/></g>
<g><path style="opacity:1" fill="#cb3451" d="M 172.5,49.5 C 171.008,53.8178 169.008,57.8178 166.5,61.5C 166.631,60.6236 166.298,59.9569 165.5,59.5C 163.911,62.421 162.411,65.421 161,68.5C 160.22,70.3869 160.387,72.0536 161.5,73.5C 158.713,76.2961 156.713,75.6295 155.5,71.5C 156.496,71.5858 157.329,71.2524 158,70.5C 159.751,65.3256 162.251,60.659 165.5,56.5C 167.751,54.8538 169.418,52.6871 170.5,50C 171.094,49.5357 171.761,49.369 172.5,49.5 Z"/></g>
<g><path style="opacity:1" fill="#49d2e0" d="M 185.5,34.5 C 187.292,34.366 188.958,34.6993 190.5,35.5C 191.71,35.9321 192.71,36.5987 193.5,37.5C 194.265,40.6702 195.265,43.6702 196.5,46.5C 196.176,51.4703 194.843,56.1369 192.5,60.5C 188.202,67.78 182.202,73.1134 174.5,76.5C 173.761,76.631 173.094,76.4643 172.5,76C 174.747,74.7225 176.747,73.2225 178.5,71.5C 181.167,69.5 183.5,67.1667 185.5,64.5C 188.17,60.9883 190.67,57.3216 193,53.5C 193.35,49.6186 192.85,45.9519 191.5,42.5C 191.423,41.2502 190.756,40.4169 189.5,40C 185.848,39.5014 182.182,39.3347 178.5,39.5C 181.641,38.6787 184.975,38.1787 188.5,38C 184.167,37.6667 179.833,37.3333 175.5,37C 179.038,36.4652 182.372,35.6319 185.5,34.5 Z"/></g>
<g><path style="opacity:1" fill="#ee582f" d="M 220.5,68.5 C 221.239,68.369 221.906,68.5357 222.5,69C 221.594,70.6995 221.261,72.5328 221.5,74.5C 219.723,74.7863 218.056,75.4529 216.5,76.5C 215.09,76.1322 214.09,75.2989 213.5,74C 216.02,72.3029 218.353,70.4695 220.5,68.5 Z"/></g>
<g><path style="opacity:1" fill="#593b6a" d="M 385.5,59.5 C 385.533,63.8689 385.2,68.2022 384.5,72.5C 384.737,73.791 384.404,74.791 383.5,75.5C 383.756,71.1382 383.923,66.8049 384,62.5C 382.414,67.0169 381.58,71.6836 381.5,76.5C 381.5,77.5 381.5,78.5 381.5,79.5C 380.539,77.7354 380.205,75.7354 380.5,73.5C 380.5,72.5 380.5,71.5 380.5,70.5C 380.233,65.8218 381.9,62.1552 385.5,59.5 Z"/></g>
<g><path style="opacity:1" fill="#52b2c4" d="M 383.5,75.5 C 383.5,76.8333 383.5,78.1667 383.5,79.5C 382.833,78.5 382.167,77.5 381.5,76.5C 381.58,71.6836 382.414,67.0169 384,62.5C 383.923,66.8049 383.756,71.1382 383.5,75.5 Z"/></g>
<g><path style="opacity:1" fill="#39d2e4" d="M 426.5,77.5 C 425.596,78.209 425.263,79.209 425.5,80.5C 424.167,80.5 422.833,80.5 421.5,80.5C 421.5,80.1667 421.5,79.8333 421.5,79.5C 422.036,75.6861 423.036,72.0194 424.5,68.5C 425.712,67.7701 426.712,66.7701 427.5,65.5C 427.833,66.5 428.167,67.5 428.5,68.5C 427.828,71.5123 427.161,74.5123 426.5,77.5 Z"/></g>
<g><path style="opacity:1" fill="#2e3545" d="M 12.5,67.5 C 13.5,67.5 14.5,67.5 15.5,67.5C 14.6988,71.2347 13.6988,74.9014 12.5,78.5C 11.2101,79.0577 10.3768,80.0577 10,81.5C 9.50999,80.2068 9.34332,78.8734 9.5,77.5C 10.7987,74.3162 11.7987,70.9829 12.5,67.5 Z"/></g>
<g><path style="opacity:1" fill="#d18619" d="M 20.5,70.5 C 22.8978,73.0651 24.5645,76.0651 25.5,79.5C 25.1667,79.5 24.8333,79.5 24.5,79.5C 22.9138,77.3295 21.5804,74.9962 20.5,72.5C 20.5,71.8333 20.5,71.1667 20.5,70.5 Z"/></g>
<g><path style="opacity:1" fill="#353f61" d="M 71.5,68.5 C 71.8417,67.6618 72.5084,67.3284 73.5,67.5C 74.1667,67.5 74.8333,67.5 75.5,67.5C 73.5472,71.1203 70.8805,74.1203 67.5,76.5C 68.5256,73.6277 70.1923,71.1277 72.5,69C 72.2716,68.6012 71.9382,68.4346 71.5,68.5 Z"/></g>
<g><path style="opacity:1" fill="#527bba" d="M 121.5,61.5 C 122.167,61.5 122.833,61.5 123.5,61.5C 123.187,65.0419 123.521,68.3752 124.5,71.5C 124.691,75.2621 125.358,78.9288 126.5,82.5C 125.5,81.8333 124.5,81.1667 123.5,80.5C 123.208,74.1235 122.541,67.7902 121.5,61.5 Z"/></g>
<g><path style="opacity:1" fill="#2df1f4" d="M 308.5,62.5 C 307.752,67.4855 307.085,72.4855 306.5,77.5C 305.681,80.3054 305.181,83.3054 305,86.5C 304.658,84.3808 303.825,84.0474 302.5,85.5C 302.5,82.1667 302.5,78.8333 302.5,75.5C 302.5,73.8333 302.5,72.1667 302.5,70.5C 304.322,67.7032 306.322,65.0365 308.5,62.5 Z"/></g>
<g><path style="opacity:1" fill="#2ad7c7" d="M 147.5,42.5 C 148.167,42.5 148.5,42.8333 148.5,43.5C 140.135,55.7361 133.968,69.0695 130,83.5C 128.708,84.7911 127.542,84.7911 126.5,83.5C 127.268,82.7375 127.768,81.7375 128,80.5C 128.333,81.1667 128.667,81.8333 129,82.5C 129.822,79.8832 130.322,77.2165 130.5,74.5C 130.5,73.1667 130.5,71.8333 130.5,70.5C 132.768,66.8765 135.102,63.2098 137.5,59.5C 139.513,55.4734 141.513,51.4734 143.5,47.5C 145.063,46.0552 146.396,44.3885 147.5,42.5 Z"/></g>
<g><path style="opacity:1" fill="#713755" d="M 200.5,58.5 C 200.19,61.7131 200.523,64.7131 201.5,67.5C 201.413,70.5983 201.913,70.9316 203,68.5C 203.442,70.6785 204.442,71.3452 206,70.5C 207.508,72.8384 209.675,73.8384 212.5,73.5C 212.5,74.5 212.5,75.5 212.5,76.5C 210.801,76.6602 209.134,76.4935 207.5,76C 206.295,74.6244 204.962,73.4577 203.5,72.5C 202.391,72.4431 201.391,72.1098 200.5,71.5C 199.206,67.0661 199.206,62.7327 200.5,58.5 Z"/></g>
<g><path style="opacity:1" fill="#6ba2c7" d="M 203.5,72.5 C 204.962,73.4577 206.295,74.6244 207.5,76C 209.134,76.4935 210.801,76.6602 212.5,76.5C 213.506,76.9377 213.506,77.6043 212.5,78.5C 207.559,79.2075 204.559,77.2075 203.5,72.5 Z"/></g>
<g><path style="opacity:1" fill="#2da2db" d="M 311.5,58.5 C 309.498,71.5013 307.831,84.5013 306.5,97.5C 306.307,91.0433 306.307,84.3766 306.5,77.5C 307.085,72.4855 307.752,67.4855 308.5,62.5C 309.143,60.9236 310.143,59.5903 311.5,58.5 Z"/></g>
<g><path style="opacity:1" fill="#ad2051" d="M 403.5,66.5 C 402.77,69.6184 401.77,72.6184 400.5,75.5C 398.013,80.0383 394.346,82.3717 389.5,82.5C 386.923,82.5449 384.923,81.5449 383.5,79.5C 383.5,78.1667 383.5,76.8333 383.5,75.5C 384.404,74.791 384.737,73.791 384.5,72.5C 384.833,72.5 385.167,72.5 385.5,72.5C 385.318,74.5914 385.652,76.5914 386.5,78.5C 390.751,79.2259 394.417,77.8926 397.5,74.5C 399.163,71.5142 401.163,68.8475 403.5,66.5 Z"/></g>
<g><path style="opacity:1" fill="#d23044" d="M 110.5,73.5 C 110.492,76.5448 110.159,79.5448 109.5,82.5C 106.911,82.539 104.911,81.539 103.5,79.5C 103.5,79.1667 103.5,78.8333 103.5,78.5C 103.833,78.5 104.167,78.5 104.5,78.5C 105.5,78.1667 106.167,77.5 106.5,76.5C 107.935,74.4024 109.102,72.0691 110,69.5C 110.49,70.7932 110.657,72.1266 110.5,73.5 Z"/></g>
<g><path style="opacity:1" fill="#6c2c5d" d="M 162.5,76.5 C 161.833,77.1667 161.167,77.8333 160.5,78.5C 154.671,78.9684 149.004,79.6351 143.5,80.5C 142.226,79.8106 142.226,78.9772 143.5,78C 149.867,77.7065 156.2,77.2065 162.5,76.5 Z"/></g>
<g><path style="opacity:1" fill="#4c316c" d="M 200.5,71.5 C 201.391,72.1098 202.391,72.4431 203.5,72.5C 204.559,77.2075 207.559,79.2075 212.5,78.5C 213.833,78.5 215.167,78.5 216.5,78.5C 212.741,80.9455 208.741,81.1122 204.5,79C 202.505,76.8428 201.172,74.3428 200.5,71.5 Z"/></g>
<g><path style="opacity:1" fill="#f43e36" d="M 464.5,77.5 C 472.84,77.3336 481.173,77.5003 489.5,78C 490.71,79.0391 491.71,80.2058 492.5,81.5C 490.401,82.6118 488.067,83.2785 485.5,83.5C 484.833,83.5 484.167,83.5 483.5,83.5C 480.005,82.8713 477.338,81.5379 475.5,79.5C 474.167,79.5 472.833,79.5 471.5,79.5C 469.167,78.8333 466.833,78.1667 464.5,77.5 Z"/></g>
<g><path style="opacity:1" fill="#26d4d7" d="M 71.5,68.5 C 71.9382,68.4346 72.2716,68.6012 72.5,69C 70.1923,71.1277 68.5256,73.6277 67.5,76.5C 64.0955,80.2951 61.4288,84.6285 59.5,89.5C 56.746,87.9472 55.9126,85.6139 57,82.5C 59.9981,78.0081 63.1648,73.6748 66.5,69.5C 67.9187,68.5489 69.5853,68.2155 71.5,68.5 Z"/></g>
<g><path style="opacity:1" fill="#3deff4" d="M 128.5,70.5 C 128.157,72.4832 128.824,73.8166 130.5,74.5C 130.322,77.2165 129.822,79.8832 129,82.5C 128.667,81.8333 128.333,81.1667 128,80.5C 127.768,81.7375 127.268,82.7375 126.5,83.5C 126.5,83.1667 126.5,82.8333 126.5,82.5C 125.358,78.9288 124.691,75.2621 124.5,71.5C 124.34,69.8008 124.506,68.1341 125,66.5C 125.416,68.5503 126.583,69.8836 128.5,70.5 Z"/></g>
<g><path style="opacity:1" fill="#413078" d="M 8.5,66.5 C 9.95875,66.4326 11.2921,66.7659 12.5,67.5C 11.7987,70.9829 10.7987,74.3162 9.5,77.5C 7.92809,80.2154 6.92809,83.2154 6.5,86.5C 4.41203,88.3356 3.0787,90.6689 2.5,93.5C 2.16667,94.8333 1.83333,96.1667 1.5,97.5C 0.833333,96.8333 0.166667,96.1667 -0.5,95.5C -0.5,93.5 -0.5,91.5 -0.5,89.5C 0.348502,87.1124 1.3485,84.7791 2.5,82.5C 5.07097,77.4628 7.07097,72.1294 8.5,66.5 Z"/></g>
<g><path style="opacity:1" fill="#34bcdc" d="M 178.5,71.5 C 176.747,73.2225 174.747,74.7225 172.5,76C 173.094,76.4643 173.761,76.631 174.5,76.5C 172.5,77.5 170.5,78.5 168.5,79.5C 160.998,82.23 153.331,82.8967 145.5,81.5C 144.833,81.5 144.167,81.5 143.5,81.5C 143.5,81.1667 143.5,80.8333 143.5,80.5C 149.004,79.6351 154.671,78.9684 160.5,78.5C 166.712,76.7279 172.712,74.3945 178.5,71.5 Z"/></g>
<g><path style="opacity:1" fill="#3e82ce" d="M 302.5,70.5 C 302.5,72.1667 302.5,73.8333 302.5,75.5C 301.656,82.1268 300.489,82.1268 299,75.5C 298.262,78.9913 297.429,82.3246 296.5,85.5C 295.517,81.7016 295.183,77.7016 295.5,73.5C 296.84,69.6834 298.674,66.0167 301,62.5C 301.183,65.3647 301.683,68.0314 302.5,70.5 Z"/></g>
<g><path style="opacity:1" fill="#3997cd" d="M 426.5,77.5 C 426.694,81.0048 427.694,81.3382 429.5,78.5C 430.949,80.1644 432.949,80.9977 435.5,81C 436.252,81.6708 436.586,82.5041 436.5,83.5C 431.637,83.1805 426.97,83.5139 422.5,84.5C 420.586,83.8153 418.586,83.3153 416.5,83C 418.491,82.6264 420.158,81.793 421.5,80.5C 422.833,80.5 424.167,80.5 425.5,80.5C 425.263,79.209 425.596,78.209 426.5,77.5 Z"/></g>
<g><path style="opacity:1" fill="#762456" d="M 37.5,78.5 C 40.2195,80.2193 42.2195,82.5526 43.5,85.5C 41.3131,84.242 38.9798,83.242 36.5,82.5C 34.5,82.8333 32.5,83.1667 30.5,83.5C 30.4431,82.391 30.1098,81.391 29.5,80.5C 30.7564,80.0962 31.9231,79.4295 33,78.5C 34.6773,79.6078 36.1773,79.6078 37.5,78.5 Z"/></g>
<g><path style="opacity:1" fill="#37253b" d="M 376.5,61.5 C 376.5,67.1667 376.5,72.8333 376.5,78.5C 377.305,80.9154 378.305,83.2487 379.5,85.5C 376.759,83.7003 375.259,81.0336 375,77.5C 374.258,71.9228 374.758,66.5895 376.5,61.5 Z"/></g>
<g><path style="opacity:1" fill="#462446" d="M 9.5,77.5 C 9.34332,78.8734 9.50999,80.2068 10,81.5C 10.3768,80.0577 11.2101,79.0577 12.5,78.5C 11.9853,80.8945 11.3186,83.2278 10.5,85.5C 9.51776,86.1408 8.51776,86.8075 7.5,87.5C 6.89333,87.3764 6.55999,87.0431 6.5,86.5C 6.92809,83.2154 7.92809,80.2154 9.5,77.5 Z"/></g>
<g><path style="opacity:1" fill="#aa5e58" d="M 27.5,77.5 C 28.1667,78.5 28.8333,79.5 29.5,80.5C 30.1098,81.391 30.4431,82.391 30.5,83.5C 30.5,84.1667 30.5,84.8333 30.5,85.5C 28.6736,83.8525 27.3403,81.8525 26.5,79.5C 26.2465,77.5992 26.5798,76.9326 27.5,77.5 Z"/></g>
<g><path style="opacity:1" fill="#eb3739" d="M 94.5,73.5 C 93.6365,79.4549 93.3032,85.4549 93.5,91.5C 93.7678,93.099 93.4345,94.4324 92.5,95.5C 91.6739,90.6835 91.1739,85.6835 91,80.5C 90.5892,85.5195 90.0892,90.5195 89.5,95.5C 87.6203,95.7709 86.287,95.1042 85.5,93.5C 87.1049,86.2083 88.6049,78.875 90,71.5C 90.3333,72.5 90.6667,73.5 91,74.5C 91.6667,72.5 92.3333,70.5 93,68.5C 93.1981,70.3817 93.6981,72.0484 94.5,73.5 Z"/></g>
<g><path style="opacity:1" fill="#a0464f" d="M 143.5,81.5 C 144.167,81.5 144.833,81.5 145.5,81.5C 147.328,82.2828 148.661,83.6161 149.5,85.5C 146.802,85.1551 144.802,83.8218 143.5,81.5 Z"/></g>
<g><path style="opacity:1" fill="#5765b7" d="M 168.5,79.5 C 169.239,79.369 169.906,79.5357 170.5,80C 167.212,81.5817 163.879,82.915 160.5,84C 161.793,84.49 163.127,84.6567 164.5,84.5C 159.695,85.4872 154.695,85.8205 149.5,85.5C 148.661,83.6161 147.328,82.2828 145.5,81.5C 153.331,82.8967 160.998,82.23 168.5,79.5 Z"/></g>
<g><path style="opacity:1" fill="#5d81c8" d="M 192.5,60.5 C 192.409,62.6977 193.075,63.0311 194.5,61.5C 187.543,72.9954 177.543,80.6621 164.5,84.5C 163.127,84.6567 161.793,84.49 160.5,84C 163.879,82.915 167.212,81.5817 170.5,80C 169.906,79.5357 169.239,79.369 168.5,79.5C 170.5,78.5 172.5,77.5 174.5,76.5C 182.202,73.1134 188.202,67.78 192.5,60.5 Z"/></g>
<g><path style="opacity:1" fill="#24d9dd" d="M 368.5,69.5 C 365.79,77.2547 361.79,84.2547 356.5,90.5C 354.883,89.962 353.216,89.6287 351.5,89.5C 351.807,87.5542 351.807,85.8875 351.5,84.5C 350.914,84.7093 350.414,85.0426 350,85.5C 347.468,82.8362 345.302,83.1696 343.5,86.5C 340.826,87.4991 340.159,89.1658 341.5,91.5C 341.5,92.5 341.5,93.5 341.5,94.5C 339.143,94.6633 336.81,94.4966 334.5,94C 333.619,93.2917 332.953,92.4584 332.5,91.5C 330.171,87.8451 328.837,83.8451 328.5,79.5C 330.5,79.5 332.5,79.5 334.5,79.5C 335.906,79.9731 336.573,80.9731 336.5,82.5C 332.419,80.7441 330.919,82.0774 332,86.5C 332.77,90.7705 335.27,92.4372 339.5,91.5C 339.5,90.1667 339.5,88.8333 339.5,87.5C 346.205,81.7708 351.205,74.7708 354.5,66.5C 356.5,66.5 358.5,66.5 360.5,66.5C 360.343,67.8734 360.51,69.2068 361,70.5C 361.739,68.7795 362.573,67.1128 363.5,65.5C 365.003,66.0522 366.669,66.0522 368.5,65.5C 368.5,66.8333 368.5,68.1667 368.5,69.5 Z"/></g>
<g><path style="opacity:1" fill="#a82c58" d="M 464.5,77.5 C 466.833,78.1667 469.167,78.8333 471.5,79.5C 467.78,79.5642 464.114,80.0642 460.5,81C 465.706,81.3882 470.706,80.8882 475.5,79.5C 477.338,81.5379 480.005,82.8713 483.5,83.5C 482.167,83.8333 480.833,84.1667 479.5,84.5C 472.747,82.7789 465.747,82.1122 458.5,82.5C 453.835,82.1178 449.501,83.1178 445.5,85.5C 447.045,86.4519 448.712,86.7852 450.5,86.5C 452.167,86.5 453.833,86.5 455.5,86.5C 452.039,87.866 448.373,88.866 444.5,89.5C 442.137,87.917 442.137,86.0836 444.5,84C 448.029,82.5343 451.695,81.5343 455.5,81C 456.381,80.2917 457.047,79.4584 457.5,78.5C 459.861,78.3259 462.194,77.9926 464.5,77.5 Z"/></g>
<g><path style="opacity:1" fill="#8079a9" d="M 471.5,79.5 C 472.833,79.5 474.167,79.5 475.5,79.5C 470.706,80.8882 465.706,81.3882 460.5,81C 464.114,80.0642 467.78,79.5642 471.5,79.5 Z"/></g>
<g><path style="opacity:1" fill="#c60955" d="M 458.5,82.5 C 465.747,82.1122 472.747,82.7789 479.5,84.5C 471.416,84.3153 463.416,84.982 455.5,86.5C 453.833,86.5 452.167,86.5 450.5,86.5C 453.404,85.7148 456.07,84.3815 458.5,82.5 Z"/></g>
<g><path style="opacity:1" fill="#465180" d="M 421.5,79.5 C 421.5,79.8333 421.5,80.1667 421.5,80.5C 420.158,81.793 418.491,82.6264 416.5,83C 418.586,83.3153 420.586,83.8153 422.5,84.5C 425.01,84.0535 427.01,84.7202 428.5,86.5C 427.833,86.5 427.167,86.5 426.5,86.5C 422.02,85.4794 417.353,84.8127 412.5,84.5C 412.369,83.6236 412.702,82.9569 413.5,82.5C 416.31,81.8008 418.977,80.8008 421.5,79.5 Z"/></g>
<g><path style="opacity:1" fill="#38d1ea" d="M 422.5,84.5 C 426.97,83.5139 431.637,83.1805 436.5,83.5C 436.586,84.4959 436.252,85.3292 435.5,86C 433.19,86.4966 430.857,86.6633 428.5,86.5C 427.01,84.7202 425.01,84.0535 422.5,84.5 Z"/></g>
<g><path style="opacity:1" fill="#ec4c30" d="M 458.5,82.5 C 456.07,84.3815 453.404,85.7148 450.5,86.5C 448.712,86.7852 447.045,86.4519 445.5,85.5C 449.501,83.1178 453.835,82.1178 458.5,82.5 Z"/></g>
<g><path style="opacity:1" fill="#29325a" d="M 67.5,76.5 C 66.322,81.1906 64.322,85.524 61.5,89.5C 60.7435,90.7733 60.0768,90.7733 59.5,89.5C 61.4288,84.6285 64.0955,80.2951 67.5,76.5 Z"/></g>
<g><path style="opacity:1" fill="#f28619" d="M 92.5,95.5 C 91.5,96.8333 90.5,96.8333 89.5,95.5C 90.0892,90.5195 90.5892,85.5195 91,80.5C 91.1739,85.6835 91.6739,90.6835 92.5,95.5 Z"/></g>
<g><path style="opacity:1" fill="#b95423" d="M 95.5,67.5 C 95.8333,67.5 96.1667,67.5 96.5,67.5C 95.3087,75.6091 94.3087,83.6091 93.5,91.5C 93.3032,85.4549 93.6365,79.4549 94.5,73.5C 95.3414,71.6208 95.6747,69.6208 95.5,67.5 Z"/></g>
<g><path style="opacity:1" fill="#aa1755" d="M 412.5,84.5 C 417.353,84.8127 422.02,85.4794 426.5,86.5C 421.384,86.431 416.384,87.0976 411.5,88.5C 411.232,86.901 411.566,85.5676 412.5,84.5 Z"/></g>
<g><path style="opacity:1" fill="#7a234c" d="M 492.5,81.5 C 493.791,82.5417 493.791,83.7083 492.5,85C 493.308,85.3076 493.975,85.8076 494.5,86.5C 490.426,87.3257 486.426,86.8257 482.5,85C 483.737,84.7679 484.737,84.2679 485.5,83.5C 488.067,83.2785 490.401,82.6118 492.5,81.5 Z"/></g>
<g><path style="opacity:1" fill="#41bce6" d="M 334.5,79.5 C 332.5,79.5 330.5,79.5 328.5,79.5C 328.837,83.8451 330.171,87.8451 332.5,91.5C 331.503,91.4701 330.836,91.9701 330.5,93C 331.608,94.6773 331.608,96.1773 330.5,97.5C 330.068,96.2905 329.401,95.2905 328.5,94.5C 326.411,91.5632 324.911,88.2299 324,84.5C 323.333,82.1667 323.333,79.8333 324,77.5C 327.948,75.963 331.448,76.6297 334.5,79.5 Z"/></g>
<g><path style="opacity:1" fill="#5e1f46" d="M 380.5,73.5 C 380.205,75.7354 380.539,77.7354 381.5,79.5C 381.511,81.0174 382.177,82.1841 383.5,83C 380.833,84 380.833,85 383.5,86C 386.747,86.4383 389.747,85.7716 392.5,84C 391.263,83.7679 390.263,83.2679 389.5,82.5C 394.346,82.3717 398.013,80.0383 400.5,75.5C 401.363,74.537 402.03,74.537 402.5,75.5C 401.295,76.9948 401.295,78.3281 402.5,79.5C 397.644,85.5937 391.311,88.427 383.5,88C 381.68,87.7996 380.347,86.9663 379.5,85.5C 378.305,83.2487 377.305,80.9154 376.5,78.5C 377.5,78.5 378.5,78.5 379.5,78.5C 379.216,76.5853 379.549,74.9187 380.5,73.5 Z"/></g>
<g><path style="opacity:1" fill="#373942" d="M 381.5,76.5 C 382.167,77.5 382.833,78.5 383.5,79.5C 384.923,81.5449 386.923,82.5449 389.5,82.5C 390.263,83.2679 391.263,83.7679 392.5,84C 389.747,85.7716 386.747,86.4383 383.5,86C 380.833,85 380.833,84 383.5,83C 382.177,82.1841 381.511,81.0174 381.5,79.5C 381.5,78.5 381.5,77.5 381.5,76.5 Z"/></g>
<g><path style="opacity:1" fill="#10eace" d="M 336.5,82.5 C 337.263,84.3684 338.263,86.0351 339.5,87.5C 339.5,88.8333 339.5,90.1667 339.5,91.5C 335.27,92.4372 332.77,90.7705 332,86.5C 330.919,82.0774 332.419,80.7441 336.5,82.5 Z"/></g>
<g><path style="opacity:1" fill="#666686" d="M 343.5,86.5 C 345.824,86.6615 347.491,87.8282 348.5,90C 347.029,91.5833 346.029,93.4166 345.5,95.5C 345.167,95.5 344.833,95.5 344.5,95.5C 343.488,94.1283 342.488,92.795 341.5,91.5C 340.159,89.1658 340.826,87.4991 343.5,86.5 Z"/></g>
<g><path style="opacity:1" fill="#6d8e7b" d="M 24.5,79.5 C 24.8333,79.5 25.1667,79.5 25.5,79.5C 25.8333,79.5 26.1667,79.5 26.5,79.5C 27.3403,81.8525 28.6736,83.8525 30.5,85.5C 31.1667,87.1667 31.8333,88.8333 32.5,90.5C 29.1116,87.4029 26.4449,83.7363 24.5,79.5 Z"/></g>
<g><path style="opacity:1" fill="#6463af" d="M 36.5,82.5 C 38.7867,86.1219 41.4534,89.4552 44.5,92.5C 43.8333,92.5 43.5,92.8333 43.5,93.5C 40.8666,91.8679 38.5333,89.8679 36.5,87.5C 36.1667,87.8333 35.8333,88.1667 35.5,88.5C 36.782,90.1792 37.782,92.0126 38.5,94C 38.2716,94.3988 37.9382,94.5654 37.5,94.5C 36.5,93.8333 35.5,93.1667 34.5,92.5C 33.5,92.1667 32.8333,91.5 32.5,90.5C 31.8333,88.8333 31.1667,87.1667 30.5,85.5C 30.5,84.8333 30.5,84.1667 30.5,83.5C 32.5,83.1667 34.5,82.8333 36.5,82.5 Z"/></g>
<g><path style="opacity:1" fill="#38b6e5" d="M 302.5,75.5 C 302.5,78.8333 302.5,82.1667 302.5,85.5C 302.536,88.8212 301.869,91.9879 300.5,95C 301.159,97.4621 301.493,99.9621 301.5,102.5C 298.042,97.4499 296.375,91.7832 296.5,85.5C 297.429,82.3246 298.262,78.9913 299,75.5C 300.489,82.1268 301.656,82.1268 302.5,75.5 Z"/></g>
<g><path style="opacity:1" fill="#3a97bc" d="M 356.5,90.5 C 355.167,92.5 353.5,94.1667 351.5,95.5C 349.529,93.0082 347.696,93.3416 346,96.5C 345.601,96.2716 345.435,95.9382 345.5,95.5C 346.029,93.4166 347.029,91.5833 348.5,90C 347.491,87.8282 345.824,86.6615 343.5,86.5C 345.302,83.1696 347.468,82.8362 350,85.5C 350.414,85.0426 350.914,84.7093 351.5,84.5C 351.807,85.8875 351.807,87.5542 351.5,89.5C 353.216,89.6287 354.883,89.962 356.5,90.5 Z"/></g>
<g><path style="opacity:1" fill="#811d54" d="M 10.5,85.5 C 9.74986,89.5319 8.24986,93.1986 6,96.5C 5.27985,94.9443 4.11318,93.9443 2.5,93.5C 3.0787,90.6689 4.41203,88.3356 6.5,86.5C 6.55999,87.0431 6.89333,87.3764 7.5,87.5C 8.51776,86.8075 9.51776,86.1408 10.5,85.5 Z"/></g>
<g><path style="opacity:1" fill="#2697b9" d="M 34.5,92.5 C 35.5,93.1667 36.5,93.8333 37.5,94.5C 40.1667,97.5 42.8333,100.5 45.5,103.5C 40.8333,100.833 37.1667,97.1667 34.5,92.5 Z"/></g>
<g><path style="opacity:1" fill="#343b58" d="M 36.5,82.5 C 38.9798,83.242 41.3131,84.242 43.5,85.5C 49.9658,91.5627 56.9658,96.896 64.5,101.5C 63.7611,101.369 63.0944,101.536 62.5,102C 63.5707,102.852 64.5707,103.685 65.5,104.5C 65.8333,105.167 66.1667,105.833 66.5,106.5C 65.1667,106.167 63.8333,105.833 62.5,105.5C 56.1844,101.669 50.1844,97.3354 44.5,92.5C 41.4534,89.4552 38.7867,86.1219 36.5,82.5 Z"/></g>
<g><path style="opacity:1" fill="#3586b2" d="M 332.5,91.5 C 332.953,92.4584 333.619,93.2917 334.5,94C 336.81,94.4966 339.143,94.6633 341.5,94.5C 341.5,93.5 341.5,92.5 341.5,91.5C 342.488,92.795 343.488,94.1283 344.5,95.5C 344.5,96.5 344.5,97.5 344.5,98.5C 342.409,98.3184 340.409,98.6518 338.5,99.5C 336.821,98.218 334.987,97.218 333,96.5C 333.331,98.0187 333.164,99.352 332.5,100.5C 332.167,99.5 331.5,98.8333 330.5,98.5C 330.5,98.1667 330.5,97.8333 330.5,97.5C 331.608,96.1773 331.608,94.6773 330.5,93C 330.836,91.9701 331.503,91.4701 332.5,91.5 Z"/></g>
<g><path style="opacity:1" fill="#89286f" d="M 315.5,95.5 C 317.115,97.4363 319.282,98.4363 322,98.5C 325.659,99.24 327.826,97.9067 328.5,94.5C 329.401,95.2905 330.068,96.2905 330.5,97.5C 330.5,97.8333 330.5,98.1667 330.5,98.5C 327.141,99.4597 323.974,100.793 321,102.5C 318.316,101.932 315.816,100.932 313.5,99.5C 312.614,100.325 312.281,101.325 312.5,102.5C 311.883,102.389 311.383,102.056 311,101.5C 310.333,99.5 310.333,97.5 311,95.5C 312.779,98.2764 313.779,97.9431 314,94.5C 314.383,95.056 314.883,95.3893 315.5,95.5 Z"/></g>
<g><path style="opacity:1" fill="#36bae4" d="M 44.5,92.5 C 50.1844,97.3354 56.1844,101.669 62.5,105.5C 61.8333,105.5 61.5,105.833 61.5,106.5C 54.4014,103.624 48.4014,99.2906 43.5,93.5C 43.5,92.8333 43.8333,92.5 44.5,92.5 Z"/></g>
<g><path style="opacity:1" fill="#3c5e96" d="M 64.5,101.5 C 69.9413,103.756 75.608,105.423 81.5,106.5C 80.5514,107.152 79.3847,107.486 78,107.5C 73.7219,106.889 69.5553,105.889 65.5,104.5C 64.5707,103.685 63.5707,102.852 62.5,102C 63.0944,101.536 63.7611,101.369 64.5,101.5 Z"/></g>
<g><path style="opacity:1" fill="#495397" d="M 351.5,95.5 C 350.71,96.7942 349.71,97.9609 348.5,99C 349.381,99.7083 350.047,100.542 350.5,101.5C 348.07,102.896 345.57,104.229 343,105.5C 340.877,102.701 338.21,100.701 335,99.5C 334.805,100.819 334.972,102.153 335.5,103.5C 335.167,103.5 334.833,103.5 334.5,103.5C 333.833,102.5 333.167,101.5 332.5,100.5C 333.164,99.352 333.331,98.0187 333,96.5C 334.987,97.218 336.821,98.218 338.5,99.5C 340.409,98.6518 342.409,98.3184 344.5,98.5C 344.5,97.5 344.5,96.5 344.5,95.5C 344.833,95.5 345.167,95.5 345.5,95.5C 345.435,95.9382 345.601,96.2716 346,96.5C 347.696,93.3416 349.529,93.0082 351.5,95.5 Z"/></g>
<g><path style="opacity:1" fill="#36e2ec" d="M 306.5,77.5 C 306.307,84.3766 306.307,91.0433 306.5,97.5C 307.11,99.4341 308.11,101.101 309.5,102.5C 311.728,105.45 314.728,107.116 318.5,107.5C 319.263,108.268 320.263,108.768 321.5,109C 320.663,110.011 320.33,111.178 320.5,112.5C 318.5,112.5 316.5,112.5 314.5,112.5C 308.853,110.847 304.52,107.513 301.5,102.5C 301.493,99.9621 301.159,97.4621 300.5,95C 301.869,91.9879 302.536,88.8212 302.5,85.5C 303.825,84.0474 304.658,84.3808 305,86.5C 305.181,83.3054 305.681,80.3054 306.5,77.5 Z"/></g>
<g><path style="opacity:1" fill="#503d7f" d="M 311.5,85.5 C 311.833,85.5 312.167,85.5 312.5,85.5C 312.263,86.791 312.596,87.791 313.5,88.5C 313.878,90.921 314.545,93.2543 315.5,95.5C 314.883,95.3893 314.383,95.056 314,94.5C 313.779,97.9431 312.779,98.2764 311,95.5C 310.333,97.5 310.333,99.5 311,101.5C 311.383,102.056 311.883,102.389 312.5,102.5C 318.54,106.487 324.707,106.487 331,102.5C 332.03,102.836 332.53,103.503 332.5,104.5C 328.262,106.956 323.596,107.956 318.5,107.5C 314.728,107.116 311.728,105.45 309.5,102.5C 308.838,98.5341 308.505,94.5341 308.5,90.5C 309.5,90.5 310.5,90.5 311.5,90.5C 311.5,88.8333 311.5,87.1667 311.5,85.5 Z"/></g>
<g><path style="opacity:1" fill="#b51862" d="M 330.5,98.5 C 331.5,98.8333 332.167,99.5 332.5,100.5C 333.167,101.5 333.833,102.5 334.5,103.5C 335.748,105.649 337.248,107.649 339,109.5C 339.692,110.437 339.525,111.103 338.5,111.5C 337.728,110.306 336.728,109.306 335.5,108.5C 335.068,107.29 334.401,106.29 333.5,105.5C 333.5,104.833 333.167,104.5 332.5,104.5C 332.53,103.503 332.03,102.836 331,102.5C 324.707,106.487 318.54,106.487 312.5,102.5C 312.281,101.325 312.614,100.325 313.5,99.5C 315.816,100.932 318.316,101.932 321,102.5C 323.974,100.793 327.141,99.4597 330.5,98.5 Z"/></g>
<g><path style="opacity:1" fill="#682882" d="M 350.5,101.5 C 352.191,102.864 353.858,104.197 355.5,105.5C 351.901,106.344 348.234,106.677 344.5,106.5C 344.719,107.675 344.386,108.675 343.5,109.5C 341.098,107.091 338.431,105.091 335.5,103.5C 334.972,102.153 334.805,100.819 335,99.5C 338.21,100.701 340.877,102.701 343,105.5C 345.57,104.229 348.07,102.896 350.5,101.5 Z"/></g>
<g><path style="opacity:1" fill="#3f62c5" d="M 43.5,93.5 C 48.4014,99.2906 54.4014,103.624 61.5,106.5C 67.299,110.203 73.6323,112.536 80.5,113.5C 83.403,115.245 83.0697,116.245 79.5,116.5C 77.1817,116.003 74.8484,115.67 72.5,115.5C 67.1301,113.982 62.1301,111.649 57.5,108.5C 56.537,108.97 56.537,109.637 57.5,110.5C 53.5,108.167 49.5,105.833 45.5,103.5C 42.8333,100.5 40.1667,97.5 37.5,94.5C 37.9382,94.5654 38.2716,94.3988 38.5,94C 37.782,92.0126 36.782,90.1792 35.5,88.5C 35.8333,88.1667 36.1667,87.8333 36.5,87.5C 38.5333,89.8679 40.8666,91.8679 43.5,93.5 Z"/></g>
<g><path style="opacity:1" fill="#4a335d" d="M 65.5,104.5 C 69.5553,105.889 73.7219,106.889 78,107.5C 79.3847,107.486 80.5514,107.152 81.5,106.5C 85.9172,106.908 88.9172,109.241 90.5,113.5C 88.6854,112.37 86.6854,111.704 84.5,111.5C 78.2563,110.587 72.2563,108.92 66.5,106.5C 66.1667,105.833 65.8333,105.167 65.5,104.5 Z"/></g>
<g><path style="opacity:1" fill="#29d3df" d="M 61.5,106.5 C 61.5,105.833 61.8333,105.5 62.5,105.5C 63.8333,105.833 65.1667,106.167 66.5,106.5C 72.2563,108.92 78.2563,110.587 84.5,111.5C 83.8166,113.176 82.4832,113.843 80.5,113.5C 73.6323,112.536 67.299,110.203 61.5,106.5 Z"/></g>
<g><path style="opacity:1" fill="#3e509b" d="M 333.5,105.5 C 334.401,106.29 335.068,107.29 335.5,108.5C 332.912,110.592 329.912,111.925 326.5,112.5C 326.238,111.022 326.571,109.689 327.5,108.5C 329.604,107.481 331.604,106.481 333.5,105.5 Z"/></g>
<g><path style="opacity:1" fill="#369fc1" d="M 332.5,104.5 C 333.167,104.5 333.5,104.833 333.5,105.5C 331.604,106.481 329.604,107.481 327.5,108.5C 326.571,109.689 326.238,111.022 326.5,112.5C 322.352,113.644 318.352,113.644 314.5,112.5C 316.5,112.5 318.5,112.5 320.5,112.5C 320.33,111.178 320.663,110.011 321.5,109C 320.263,108.768 319.263,108.268 318.5,107.5C 323.596,107.956 328.262,106.956 332.5,104.5 Z"/></g>
<g><path style="opacity:1" fill="#3ac7da" d="M 45.5,103.5 C 49.5,105.833 53.5,108.167 57.5,110.5C 60.1019,112.81 63.1019,114.643 66.5,116C 71.5712,117.965 76.5712,119.798 81.5,121.5C 67.5531,119.193 55.5531,113.193 45.5,103.5 Z"/></g>
<g><path style="opacity:1" fill="#39abdc" d="M 72.5,115.5 C 77.1762,117.68 82.1762,119.18 87.5,120C 86.5,120.333 85.5,120.667 84.5,121C 85.7375,121.232 86.7375,121.732 87.5,122.5C 85.2646,122.795 83.2646,122.461 81.5,121.5C 76.5712,119.798 71.5712,117.965 66.5,116C 63.1019,114.643 60.1019,112.81 57.5,110.5C 56.537,109.637 56.537,108.97 57.5,108.5C 62.1301,111.649 67.1301,113.982 72.5,115.5 Z"/></g>
<g><path style="opacity:1" fill="#c9045b" d="M 354.5,108.5 C 357.245,111.038 360.578,112.538 364.5,113C 365.833,113.667 365.833,114.333 364.5,115C 358.786,119.336 353.12,119.169 347.5,114.5C 347.5,112.5 347.5,110.5 347.5,108.5C 349.833,108.5 352.167,108.5 354.5,108.5 Z"/></g>
<g><path style="opacity:1" fill="#791e65" d="M 334.5,103.5 C 334.833,103.5 335.167,103.5 335.5,103.5C 338.431,105.091 341.098,107.091 343.5,109.5C 344.386,108.675 344.719,107.675 344.5,106.5C 348.234,106.677 351.901,106.344 355.5,105.5C 356.167,105.5 356.5,105.833 356.5,106.5C 355.833,107.167 355.167,107.833 354.5,108.5C 352.167,108.5 349.833,108.5 347.5,108.5C 347.5,110.5 347.5,112.5 347.5,114.5C 348.758,116.687 349.758,119.02 350.5,121.5C 346.091,118.633 342.091,115.299 338.5,111.5C 339.525,111.103 339.692,110.437 339,109.5C 337.248,107.649 335.748,105.649 334.5,103.5 Z"/></g>
<g><path style="opacity:1" fill="#314f70" d="M 84.5,111.5 C 86.6854,111.704 88.6854,112.37 90.5,113.5C 91.167,115.819 91.3336,118.153 91,120.5C 90.2904,121.973 89.1238,122.64 87.5,122.5C 86.7375,121.732 85.7375,121.232 84.5,121C 85.5,120.667 86.5,120.333 87.5,120C 82.1762,119.18 77.1762,117.68 72.5,115.5C 74.8484,115.67 77.1817,116.003 79.5,116.5C 83.0697,116.245 83.403,115.245 80.5,113.5C 82.4832,113.843 83.8166,113.176 84.5,111.5 Z"/></g>
<g><path style="opacity:1" fill="#941050" d="M 356.5,106.5 C 360.302,108.399 364.302,109.733 368.5,110.5C 368.628,112.655 368.128,114.655 367,116.5C 363.91,119.111 360.744,121.445 357.5,123.5C 356.167,123.5 354.833,123.5 353.5,123.5C 352.71,122.599 351.71,121.932 350.5,121.5C 349.758,119.02 348.758,116.687 347.5,114.5C 353.12,119.169 358.786,119.336 364.5,115C 365.833,114.333 365.833,113.667 364.5,113C 360.578,112.538 357.245,111.038 354.5,108.5C 355.167,107.833 355.833,107.167 356.5,106.5 Z"/></g>
</svg>
